<svg id="Layer_1" data-name="Layer 1" xmlns="http://www.w3.org/2000/svg" viewBox="0 0 204.69 300.2"><defs><style>.cls-1{fill:#69e2d4;}.cls-2{fill:#58595b;}</style></defs><title>tgj_new_logo</title><path class="cls-1" d="M1570.32,243.67a73,73,0,1,0,73,73.05A73.06,73.06,0,0,0,1570.32,243.67Zm0,126.47a53.42,53.42,0,1,1,53.42-53.42A53.42,53.42,0,0,1,1570.32,370.14Z" transform="translate(-1467.98 -215.5)"/><path class="cls-1" d="M1623.74,253.49V412.88c0,29.46-23.56,53.87-53,54.09a53.42,53.42,0,0,1-53.17-45,9.86,9.86,0,0,0-9.71-8.41h0a9.81,9.81,0,0,0-9.72,11.25,73.08,73.08,0,0,0,72.75,61.8c40.27-.3,72.49-33.69,72.49-74V253.49a9.82,9.82,0,0,0-9.82-9.82h0A9.82,9.82,0,0,0,1623.74,253.49Z" transform="translate(-1467.98 -215.5)"/><path class="cls-2" d="M1499.69,487.52a102.43,102.43,0,0,0,173-74.3V215.5H1475.59a7.61,7.61,0,1,0,0,15.22h181.85v182.5A87.26,87.26,0,0,1,1483.38,422a7.79,7.79,0,0,0-7.3-7.09h-.28a7.62,7.62,0,0,0-5.55,2.39,7.7,7.7,0,0,0-2,6A102.45,102.45,0,0,0,1499.69,487.52Z" transform="translate(-1467.98 -215.5)"/></svg>