<svg id="Layer_6" data-name="Layer 6" xmlns="http://www.w3.org/2000/svg" viewBox="0 0 423.45 421.53"><defs><style>.cls-1{fill:#ff8e3a;}</style></defs><title>business_cards</title><polygon class="cls-1" points="231.33 99.39 121.94 0 96.22 28.32 227.41 99.38 231.33 99.39"/><polygon class="cls-1" points="405.05 263.23 405 279.71 416.21 267.39 407.22 259.21 405.05 263.23"/><polygon class="cls-1" points="166.77 322.14 276.17 421.53 301.88 393.2 170.68 322.15 166.77 322.14"/><polygon class="cls-1" points="405.11 236.31 405.08 247.38 405.08 247.79 405.23 247.51 423.45 213.87 412.22 207.79 405.11 236.31"/><polygon class="cls-1" points="91.14 33.9 87.83 32.1 84.52 30.31 73.83 24.52 54.66 59.92 57.07 60.52 61.11 61.52 65.14 62.52 211.23 98.94 91.14 33.9"/><polygon class="cls-1" points="336.99 360 332.97 359 186.87 322.59 306.96 387.63 310.26 389.42 313.58 391.22 324.27 397.01 343.43 361.61 341.02 361 336.99 360"/><polygon class="cls-1" points="25.23 98.89 27.14 98.89 29.38 98.9 32.08 98.91 33.54 98.91 182.3 99.27 59.55 68.67 55.52 67.67 51.48 66.66 51.06 66.56 47.4 65.64 43.73 64.73 31.34 61.64 22.05 98.89 22.21 98.89 25.23 98.89"/><polygon class="cls-1" points="372.87 322.63 370.96 322.63 368.72 322.63 366.02 322.62 364.56 322.62 215.8 322.26 338.55 352.85 342.58 353.86 346.62 354.86 347.04 354.96 350.7 355.88 354.37 356.8 366.77 359.88 376.05 322.64 375.89 322.64 372.87 322.63"/><polygon class="cls-1" points="405.2 199.82 405.18 203.98 405.18 205.74 405.57 204.19 406.49 200.52 407.4 196.85 417.14 157.8 405.3 154.85 405.21 195.67 405.2 199.82"/><path class="cls-1" d="M288.21,143.07h-19.3l-13.6,0-182.37-.44H56l-12.19,0,0,16.67v10.92l0,11,0,7.72v7.72l0,10.68v15.28l-.09,35.38v8.31l-.1,38.67v7.54l-.09,38.39,147.79.35H215.9l13.6,0,182.37.44h16.9l12.18,0L441,335V324.11l0-11,0-7.72v-7.72l0-10.68V271.73l.09-35.38V228l.09-38.68v-7.54l.09-38.38-147.79-.35ZM100.53,165A31.67,31.67,0,1,1,68.86,196.7,31.67,31.67,0,0,1,100.53,165Zm229.9,159.26H68.85V297.13H330.42v27.16Zm0-47.25H68.85V249.88H330.43V277Z" transform="translate(-43.36 -36.33)"/></svg>