<svg xmlns="http://www.w3.org/2000/svg" xmlns:xlink="http://www.w3.org/1999/xlink" viewBox="0 0 1051.55 1229.81"><defs><style>.cls-1{fill:#414042;}.cls-2,.cls-3{fill:none;stroke-miterlimit:10;stroke-width:30px;}.cls-2{stroke:#fff200;}.cls-3{stroke:#f1f2f2;}.cls-4{fill:#fff;}.cls-5{fill:#fff200;}</style></defs><title>carousel1</title><g id="Layer_2" data-name="Layer 2"><circle class="cls-1" cx="525.77" cy="525.77" r="525.77"/><circle class="cls-2" cx="525.77" cy="525.77" r="486.53"/><circle class="cls-3" cx="525.77" cy="525.77" r="432.55"/><path class="cls-4" d="M470.92,563.61h7.92v252.9H463q-8.4,0-35.51,2.88v-4.32q13-3.36,19.68-12.24A50.6,50.6,0,0,0,456.52,782q2.64-12.47,2.64-52.79V628.63q0-34.79-9.36-47.75T427.48,565v-4.32Zm121.17,252.9h-96V563.61h69.82q19.67,0,74.38-2.88-.48,7.2-.48,10.8,0,4.8,1.2,22.32.72,11.76.72,12.72v6h-4.08Q629,591.92,618,585.92q-11-5.76-41.51-5.76H538.34a109.24,109.24,0,0,0-16.8,1.2q-4.32,8.16-5,38.87L516,636.55v39.11h51.83q29.27,0,38.87-5t15.36-24h5.28q-1.92,21.6-1.92,37.43,0,10.08,1.44,26.39.48,4.8,1.2,19H622.8q-2.16-21.11-12.72-29-10.8-7.92-33.83-7.92H516v52.31q0,30.23,3.36,53a153,153,0,0,0,21.6,1.44h36.47q29.75,0,44.87-6.72,15.84-7,31.19-31h4.8A233.09,233.09,0,0,1,650.39,787,274.22,274.22,0,0,0,641,819.39,472.51,472.51,0,0,0,592.09,816.51Z" transform="translate(-205.27 -162.32)"/><path class="cls-4" d="M743.25,563.61l109.41,233-11,22.8L742.29,607.76,736.06,751q-.48,21.6-.48,17.76,0,42,32.39,46.31v4.32q-.24,0-6.72-.72-26.88-2.16-35.51-2.16-11.52,0-41.51,2.88v-4.32q30.47-7.92,33.11-62.39l7-163.88Q710.14,571,684.23,565v-4.32q19.44,2.16,41.51,2.4ZM862,730.85l76.78-167.24h18.47l11.28,252.9h-9.36q-10.08,0-26.39,1.44L917,819.39v-4.32q28.79-7.92,28.79-51.59,0,.72-.48-16.08L939,607.52l-76.78,168.2L762.93,563.61h20.39Zm124.29,85.66L974.8,563.61H983q17.51,0,49.19-2.88V565q-16.56,2.88-25.43,15.36-9.36,12.48-9.36,30.23l.48,25.67,5.28,114.93q1.44,31.44,9.84,46.31,8.4,15.12,26.39,17.52v4.32Q1003.83,816.51,986.32,816.51Z" transform="translate(-205.27 -162.32)"/><path class="cls-5" d="M470.92,563.61h7.92v252.9H463q-8.4,0-35.51,2.88v-4.32q13-3.36,19.68-12.24A50.6,50.6,0,0,0,456.52,782q2.64-12.47,2.64-52.79V628.63q0-34.79-9.36-47.75T427.48,565v-4.32Z" transform="translate(-205.27 -162.32)"/><path class="cls-5" d="M997.36,610.64l.48,25.67,5.28,114.93q1.44,31.44,9.84,46.31,8.4,15.12,26.39,17.52v4.32q-35.51-2.88-53-2.88L974.8,563.61H983" transform="translate(-205.27 -162.32)"/><path class="cls-5" d="M983,563.61q17.51,0,49.19-2.88V565q-16.56,2.88-25.43,15.36-9.36,12.48-9.36,30.23" transform="translate(-205.27 -162.32)"/></g><g id="Layer_3" data-name="Layer 3"><image width="381" height="59" transform="translate(131.9 1107.82) scale(2.07)" xlink:href="../../../../shadow.png"/></g></svg>