<svg xmlns="http://www.w3.org/2000/svg" viewBox="0 0 463.56 244.36"><defs><style>.cls-1{fill:#5aa54d;}.cls-2{fill:#f6f4b5;}</style></defs><title>cash</title><g id="Cash"><rect class="cls-1" width="463.56" height="244.36"/><rect class="cls-2" x="21.56" y="20.36" width="421.64" height="203.63"/><path class="cls-1" d="M442,282V177.82h-.1a31.14,31.14,0,0,1-31.14-31.14H89.79a31.14,31.14,0,0,1-31.14,31.14V282.28a30.93,30.93,0,0,1,31.14,30.89H410.66A31.14,31.14,0,0,1,441.8,282Z" transform="translate(-17.92 -108.34)"/><circle class="cls-2" cx="103.55" cy="118.97" r="20.99"/><circle class="cls-2" cx="366.77" cy="119.87" r="20.99"/><circle class="cls-2" cx="231.65" cy="123.15" r="77.33"/><path class="cls-1" d="M274.49,207.71H260.21v-3.59a18.44,18.44,0,0,0-2.31-9.43q-2.31-4-7.77-4a8.28,8.28,0,0,0-4.76,1.25,9.91,9.91,0,0,0-2.94,3.12,14.1,14.1,0,0,0-1.54,4.6,33.27,33.27,0,0,0-.42,5.38q0,3.27.21,5.46a11.23,11.23,0,0,0,1.05,3.9,8.38,8.38,0,0,0,2.45,3,21.57,21.57,0,0,0,4.41,2.49l10.93,4.83a26.55,26.55,0,0,1,7.7,4.76,20.3,20.3,0,0,1,4.62,6.32,32.2,32.2,0,0,1,2.1,8.5,93.88,93.88,0,0,1,.56,10.84,63.39,63.39,0,0,1-1.26,13,29.07,29.07,0,0,1-4.06,10.21,20.75,20.75,0,0,1-7.7,6.86,24.84,24.84,0,0,1-11.63,2.49,23.2,23.2,0,0,1-9.66-2,22.82,22.82,0,0,1-7.7-5.61,27.66,27.66,0,0,1-7-18.71v-5.92h14.29v5a14,14,0,0,0,2.31,7.87q2.31,3.51,7.77,3.51a11.45,11.45,0,0,0,5.67-1.17,8,8,0,0,0,3.15-3.35,13.4,13.4,0,0,0,1.33-5.22q.21-3,.21-6.78,0-4.36-.28-7.17a13.47,13.47,0,0,0-1.12-4.52,8.38,8.38,0,0,0-2.59-2.81,32.3,32.3,0,0,0-4.27-2.34l-10.22-4.68q-9.25-4.21-12.4-11.15t-3.15-17.39a44.5,44.5,0,0,1,1.54-11.85,28,28,0,0,1,4.62-9.67,21.7,21.7,0,0,1,7.49-6.47,22.86,22.86,0,0,1,10.86-2.42,21.67,21.67,0,0,1,9.73,2.18,25.23,25.23,0,0,1,7.63,5.77,25.54,25.54,0,0,1,6.44,17.15Z" transform="translate(-17.92 -108.34)"/><rect class="cls-1" x="225.89" y="59.99" width="13.58" height="11.18"/><rect class="cls-1" x="225.89" y="174.08" width="13.58" height="11.18"/></g></svg>