<svg xmlns="http://www.w3.org/2000/svg" viewBox="0 0 480.18 231.58"><defs><style>.cls-1{fill:#fff;}.cls-1,.cls-2,.cls-3,.cls-4{stroke:#231f20;stroke-miterlimit:10;}.cls-1,.cls-2,.cls-4{stroke-width:4px;}.cls-2{fill:none;}.cls-3,.cls-4,.cls-5{fill:#231f20;}</style></defs><title>check</title><g id="Check"><rect class="cls-1" x="2" y="2" width="476.18" height="227.58"/><rect class="cls-2" x="317.12" y="34.68" width="123.71" height="37.35"/><path class="cls-3" d="M322.79,168.17h-4.44v-1.12a5.73,5.73,0,0,0-.72-2.93,3,3,0,0,0-3.9-.85,3.08,3.08,0,0,0-.91,1,4.38,4.38,0,0,0-.48,1.43,10.35,10.35,0,0,0-.13,1.67q0,1,.07,1.7a3.49,3.49,0,0,0,.33,1.21,2.6,2.6,0,0,0,.76.92,6.71,6.71,0,0,0,1.37.78l3.4,1.5a8.26,8.26,0,0,1,2.4,1.48,6.31,6.31,0,0,1,1.44,2,10,10,0,0,1,.65,2.64,29.19,29.19,0,0,1,.17,3.37,19.71,19.71,0,0,1-.39,4,9,9,0,0,1-1.26,3.18,6.45,6.45,0,0,1-2.4,2.13,7.73,7.73,0,0,1-3.62.78,7.21,7.21,0,0,1-3-.63,7.1,7.1,0,0,1-2.4-1.75,8.6,8.6,0,0,1-2.18-5.82V183H312v1.55a4.35,4.35,0,0,0,.72,2.45,2.68,2.68,0,0,0,2.42,1.09,3.56,3.56,0,0,0,1.76-.36,2.48,2.48,0,0,0,1-1,4.17,4.17,0,0,0,.41-1.62q.06-.95.07-2.11,0-1.36-.09-2.23a4.19,4.19,0,0,0-.35-1.41,2.6,2.6,0,0,0-.81-.87,10,10,0,0,0-1.33-.73l-3.18-1.45a7.27,7.27,0,0,1-3.85-3.47,13.08,13.08,0,0,1-1-5.41,13.84,13.84,0,0,1,.48-3.68,8.72,8.72,0,0,1,1.44-3,6.75,6.75,0,0,1,2.33-2,7.11,7.11,0,0,1,3.38-.75,6.74,6.74,0,0,1,3,.68,7.85,7.85,0,0,1,2.37,1.79,7.94,7.94,0,0,1,2,5.33Z" transform="translate(-11.82 -122.92)"/><rect class="cls-3" x="301.43" y="33.01" width="4.22" height="3.48"/><rect class="cls-3" x="301.43" y="68.49" width="4.22" height="3.48"/><rect class="cls-3" x="38.18" y="119.88" width="60.69" height="16.34" rx="8.17" ry="8.17"/><rect class="cls-3" x="38.18" y="82.53" width="60.69" height="16.34" rx="8.17" ry="8.17"/><rect class="cls-3" x="35.85" y="38.18" width="159.89" height="22.17" rx="11.09" ry="11.09"/><line class="cls-4" x1="39.35" y1="107.04" x2="279.77" y2="107.04"/><line class="cls-4" x1="38.18" y1="142.05" x2="278.6" y2="142.05"/><line class="cls-4" x1="40.51" y1="194.57" x2="230.37" y2="194.57"/><line class="cls-4" x1="251.76" y1="194.57" x2="441.61" y2="194.57"/><path class="cls-5" d="M278.69,323.61c8.07.77,14.77-3.55,20.65-8.64,7.12-6.16,13.86-12.93,20.42-19.68,12.56-12.91,23.84-27.06,30.81-43.8.48-1.14-1.32-2.16-2.09-1.22a195.71,195.71,0,0,0-21.1,31.62c-3.68,6.93-10.32,17.2-7.27,25.5,2.94,8,11.5,5.18,16.14.64,4.31-4.22,7.47-9.19,12.47-12.74a40.76,40.76,0,0,1,16.65-6.81c1.25-.22,1.13-2.11,0-2.41-13.14-3.51-26.86,6-28.49,19.39a1.26,1.26,0,0,0,1.25,1.25,23.89,23.89,0,0,0,22-15.31l-2.41-.66a103.91,103.91,0,0,1-16.85,41.9,68.8,68.8,0,0,1-7,8.93c-2.91,3-10.64,8.31-14.23,2.78l-.38-6.11a15.64,15.64,0,0,1,2.27-3.23,20.44,20.44,0,0,1,3.8-3.27,36,36,0,0,1,9.08-4.14c11.7-3.8,22.94-6,33.18-13.36a68.56,68.56,0,0,0,22.64-27.58l-2.28-1-9,23-4.31,11c-.79,2-4.91,16.1-9.83,11.11v1.77a167.64,167.64,0,0,1,57-43c1.46-.67.19-2.83-1.26-2.16a169.28,169.28,0,0,0-57.55,43.39,1.28,1.28,0,0,0,0,1.77c6.17,6.27,10.81-4,12.57-8.53l14.74-37.73c.51-1.31-1.7-2.25-2.28-1a66.16,66.16,0,0,1-25.44,29.13C352,321.07,340,322.11,328.87,327c-6.3,2.77-19,13.13-9.94,20,9.5,7.22,18.92-5.71,23.65-12.44a105.66,105.66,0,0,0,17.59-43.19,1.25,1.25,0,0,0-2.41-.66,21.27,21.27,0,0,1-19.62,13.48l1.25,1.25c1.43-11.82,13.9-20,25.32-17v-2.41a42.62,42.62,0,0,0-20.53,9.63c-3.28,2.83-5.72,6.33-8.65,9.48-1.69,1.81-3.72,3.89-6.13,4.67-3.88,1.24-6.88-1.71-7.33-5.32-1.11-8.74,6-18.89,10.08-26.1A192.6,192.6,0,0,1,350.25,252l-2.09-1.22c-6.58,15.79-17.23,29.24-29,41.49-5.43,5.65-11.1,11.08-16.79,16.46C295.8,315,288.45,322,278.69,321.11c-1.6-.15-1.59,2.35,0,2.5Z" transform="translate(-11.82 -122.92)"/><path class="cls-5" d="M303.5,285.62q26.12-6,52.65-9.85c1.59-.23.91-2.64-.66-2.41q-26.52,3.85-52.65,9.85c-1.57.36-.9,2.77.66,2.41Z" transform="translate(-11.82 -122.92)"/><path class="cls-5" d="M389.89,278.76a141.54,141.54,0,0,0,29.63-12.57,1.25,1.25,0,0,0-1.26-2.16,138.69,138.69,0,0,1-29,12.32,1.25,1.25,0,0,0,.66,2.41Z" transform="translate(-11.82 -122.92)"/></g></svg>