<svg xmlns="http://www.w3.org/2000/svg" viewBox="0 0 423.08 422.75"><defs><style>.cls-1{fill:#6ccef6;}.cls-2{fill:#6ccef5;}.cls-3{fill:#f68d3f;}.cls-4{fill:#6ccff5;}</style></defs><title>clock</title><g id="Layer_6" data-name="Layer 6"><rect class="cls-1" x="200.23" y="78.87" width="26.31" height="143.4" rx="13.16" ry="13.16"/><path class="cls-2" d="M62.5,248.25H38.77C38.77,135.61,130.42,44,243.06,44V67.69C143.5,67.69,62.5,148.69,62.5,248.25Z" transform="translate(-31.71 -37)"/><path class="cls-3" d="M447.36,248.25H423.62c0-99.56-81-180.56-180.56-180.56V44C355.71,44,447.36,135.61,447.36,248.25Z" transform="translate(-31.71 -37)"/><path class="cls-2" d="M243.06,452.54V428.81c99.56,0,180.56-81,180.56-180.56h23.73C447.36,360.9,355.71,452.54,243.06,452.54Z" transform="translate(-31.71 -37)"/><path class="cls-3" d="M243.06,452.54c-112.65,0-204.29-91.64-204.29-204.29H62.5c0,99.56,81,180.56,180.56,180.56Z" transform="translate(-31.71 -37)"/><polygon class="cls-4" points="233.53 19.05 200.54 0 200.54 38.1 233.53 19.05"/><polygon class="cls-3" points="404.03 232.55 423.08 199.55 384.98 199.55 404.03 232.55"/><polygon class="cls-2" points="190.2 403.7 223.2 422.75 223.2 384.65 190.2 403.7"/><polygon class="cls-3" points="19.05 190.2 0 223.2 38.1 223.2 19.05 190.2"/><rect class="cls-3" x="252.07" y="224.46" width="26.31" height="83.29" rx="13.16" ry="13.16" transform="translate(-142.19 228.49) rotate(-45)"/></g></svg>