<svg xmlns="http://www.w3.org/2000/svg" viewBox="0 0 441.4 465.21"><defs><style>.cls-1{fill:#414042;}.cls-2,.cls-4{fill:#f7ec21;}.cls-2{stroke:#414042;stroke-miterlimit:10;stroke-width:10px;}.cls-3{fill:#fff;}</style></defs><title>lightbulb</title><g id="Layer_2" data-name="Layer 2"><rect class="cls-1" x="166.9" y="398.62" width="105.69" height="14.8" rx="7.4" ry="7.4"/><rect class="cls-1" x="167.61" y="424.69" width="105.69" height="14.8" rx="7.4" ry="7.4"/><rect class="cls-1" x="184.52" y="450.41" width="69.99" height="14.8" rx="6.02" ry="6.02"/><path class="cls-2" d="M195.7,394.31s-16.86,1.5-18-21.73-14.24-37.84-25.1-46.45-39-43.83-39-89.54,19.29-73.61,42-96.28,57.69-34.09,84.67-34.09h4.12c27,0,62,11.43,84.67,34.09s42,50.57,42,96.28-28.1,80.92-39,89.54-24,23.23-25.1,46.45-18,21.73-18,21.73Z" transform="translate(-22.77 -16)"/><path class="cls-3" d="M318.22,180c-14.38-19.46-29.66-30.21-52.67-37.24a6.44,6.44,0,0,1-5-7.48l.36-1.76c.7-3.46,4.61-5.81,8.57-4.91,26.68,7.87,44.52,20.48,60.84,43,2.17,3.43,1.26,7.9-1.77,9.72l-1.54.92A6.44,6.44,0,0,1,318.22,180Z" transform="translate(-22.77 -16)"/><path class="cls-3" d="M335.13,210.21a15.09,15.09,0,0,0-4-7.77,6.63,6.63,0,0,1,.19-9.08h0c2.67-2.86,8.59-3.08,11.76.54A22.41,22.41,0,0,1,349,205.44c1.11,4.69-2.51,9.38-6.39,9.89h0A6.63,6.63,0,0,1,335.13,210.21Z" transform="translate(-22.77 -16)"/><rect class="cls-4" y="216.44" width="64.79" height="14.8" rx="7.4" ry="7.4"/><rect class="cls-4" x="376.61" y="216.6" width="64.79" height="14.8" rx="7.4" ry="7.4"/><rect class="cls-4" x="67.72" y="86.29" width="64.79" height="14.8" rx="7.4" ry="7.4" transform="translate(72.8 -59.35) rotate(45)"/><rect class="cls-4" x="364.4" y="349.18" width="64.79" height="14.8" rx="7.4" ry="7.4" transform="translate(345.59 -192.13) rotate(45)"/><rect class="cls-4" x="55.65" y="350.07" width="64.79" height="14.8" rx="7.4" ry="7.4" transform="translate(-249.76 150.96) rotate(-45)"/><rect class="cls-4" x="210.69" y="41" width="64.79" height="14.8" rx="7.4" ry="7.4" transform="translate(268.7 -210.69) rotate(90)"/><rect class="cls-4" x="350.72" y="86.21" width="64.79" height="14.8" rx="7.4" ry="7.4" transform="translate(23.25 282.32) rotate(-45)"/></g></svg>