<svg id="Layer_2" data-name="Layer 2" xmlns="http://www.w3.org/2000/svg" viewBox="0 0 757.69 1000"><defs><style>.cls-1{fill:#fff;}</style></defs><title>process_num2</title><path class="cls-1" d="M878.85,1000l-757.7-1.67.2-28.16c.05-7.9,3.46-195.43,189.86-370.8,16.9-15.91,36-31.44,60-48.91C479.75,471.59,594,355.51,588.34,287l-.12-1.48,0-1.48s5.54-34-13.07-50.27c-19.91-17.35-34.95-25-59.49-18.16l-36.29-38.09c51.76-14.32,92.57-8.65,121.29,16.87C635.12,225,638,272.91,638.25,283c9,123.58-181.17,271.86-239.82,314.46-22.25,16.17-39.74,30.42-55,44.81C215.53,762.54,182.68,887.89,174.26,942.45l654.19,1.44-1-150.83H412.79l284.88-262c24.85-22.86,44.92-45.11,61.34-68,66.83-93.18,80.35-183.61,40.19-268.77C771.73,136,722.12,91.86,659.53,69.91,606.44,51.31,563.07,55.64,527,83.12,437.4,151.4,424.33,339,424.2,340.83l-1.82,28.36L131.85,340.85l3.63-29.19c.4-3.19,10.18-79.11,50.11-155.18C240,52.87,332.74-2.18,436.71.07l-29.2,53.27c-166-3.08-201.8,167.78-217.18,237l186.83,18.23c7.73-61.33,34.72-205.35,121.56-271.64,48.89-37.32,108-44.19,175.76-20.47,75.27,26.4,135.28,80.26,169,151.68,34.61,73.37,54.82,190.18-45.43,330C779.42,524,757,549,729.43,574.31l-177,162.76H877.08Z" transform="translate(-121.15 0)"/></svg>