<svg xmlns="http://www.w3.org/2000/svg" viewBox="0 0 1810.09 1172.47"><defs><style>.cls-1,.cls-5,.cls-6{fill:#fff;}.cls-1,.cls-2,.cls-5,.cls-6{stroke:#231f20;stroke-miterlimit:10;}.cls-1{stroke-width:4px;}.cls-2,.cls-3{fill:#231f20;}.cls-2{stroke-width:6px;}.cls-4{fill:#34c0c8;}.cls-5{stroke-width:3px;}.cls-6{stroke-width:2px;}</style></defs><title>sec1_picture</title><g id="Layer_3" data-name="Layer 3"><path class="cls-1" d="M1297,1022.76H79.53a22.18,22.18,0,0,1-22.11-22.11V179.15A22.18,22.18,0,0,1,79.53,157H1297a22.18,22.18,0,0,1,22.11,22.11v821.5A22.18,22.18,0,0,1,1297,1022.76Z" transform="translate(-54.73 -155.04)"/><polygon class="cls-1" points="778.7 867.73 486.44 867.73 465.85 1011.2 799.28 1011.2 778.7 867.73"/><path class="cls-1" d="M1318.47,911.62v89a22.18,22.18,0,0,1-22.11,22.11H78.84a22.18,22.18,0,0,1-22.11-22.11v-89Z" transform="translate(-54.73 -155.04)"/><circle class="cls-2" cx="633.94" cy="818.33" r="22.64"/><rect class="cls-1" x="416.46" y="1011.8" width="436.34" height="20.58"/><path class="cls-3" d="M835.64,282.28H543.11V298.8H818.93l-.07,364.35a129.73,129.73,0,0,1-259.47,0H542.62c0,80.79,65.72,146.51,146.51,146.51s146.51-65.72,146.51-146.51l-.07-380.87Z" transform="translate(-54.73 -155.04)"/><path class="cls-4" d="M591.52,663.14a99.23,99.23,0,0,0,198.47,0h0V318.37h15V663.15h0a114.26,114.26,0,0,1-228.53,0Z" transform="translate(-54.73 -155.04)"/><path class="cls-4" d="M682,559A123,123,0,1,1,805,436,123.13,123.13,0,0,1,682,559Zm0-231A108,108,0,1,0,790,436,108.08,108.08,0,0,0,682,328.08Z" transform="translate(-54.73 -155.04)"/></g><g id="Layer_4" data-name="Layer 4"><path class="cls-5" d="M756,1254.87c0,25.47,23.33,46.31,51.84,46.31H1811.48c28.51,0,51.84-20.84,51.84-46.31Z" transform="translate(-54.73 -155.04)"/><path class="cls-5" d="M897.27,1254.87V730.34a22,22,0,0,1,21.92-21.92h781.19a22,22,0,0,1,21.92,21.92v524.53Z" transform="translate(-54.73 -155.04)"/><rect class="cls-5" x="878.26" y="589.4" width="754.33" height="482.65"/><path class="cls-3" d="M1419.48,801.57H1208.41v11.92h199l-.05,262.9a93.61,93.61,0,0,1-187.22,0h-12.11a105.71,105.71,0,0,0,211.43,0l-.05-274.82Z" transform="translate(-54.73 -155.04)"/><path class="cls-4" d="M1243.34,1076.38a71.6,71.6,0,0,0,143.2,0h0V827.61h10.83v248.77h0a82.45,82.45,0,0,1-164.89,0Z" transform="translate(-54.73 -155.04)"/><path class="cls-4" d="M1308.65,1001.26a88.74,88.74,0,1,1,88.74-88.74A88.84,88.84,0,0,1,1308.65,1001.26Zm0-166.64a77.9,77.9,0,1,0,77.9,77.9A78,78,0,0,0,1308.65,834.62Z" transform="translate(-54.73 -155.04)"/></g><g id="Layer_5" data-name="Layer 5"><rect class="cls-6" x="12.73" y="559.78" width="428.1" height="563.94" rx="21.95" ry="21.95"/><rect class="cls-6" x="49.77" y="612.76" width="351.95" height="462.1"/><circle class="cls-3" cx="227.99" cy="1101.08" r="12.73"/><path class="cls-3" d="M353.54,867.85H205.15v8.38H345.07l0,184.82a65.81,65.81,0,0,1-131.62,0H204.9a74.32,74.32,0,0,0,148.64,0l0-193.2Z" transform="translate(-54.73 -155.04)"/><path class="cls-4" d="M229.71,1061.05a50.34,50.34,0,0,0,100.68,0h0V886.15H338v174.9h0a58,58,0,0,1-115.92,0Z" transform="translate(-54.73 -155.04)"/><path class="cls-4" d="M275.62,1008.24A62.39,62.39,0,1,1,338,945.85,62.46,62.46,0,0,1,275.62,1008.24Zm0-117.15a54.77,54.77,0,1,0,54.77,54.77A54.83,54.83,0,0,0,275.62,891.08Z" transform="translate(-54.73 -155.04)"/></g><g id="Layer_6" data-name="Layer 6"><rect class="cls-6" x="581.61" y="1093.93" width="312.85" height="152.31" rx="21.95" ry="21.95" transform="translate(1853.39 277.02) rotate(90)"/><rect class="cls-6" x="622.77" y="1109.03" width="229.15" height="126.24" transform="translate(1854.76 279.76) rotate(90)"/><circle class="cls-3" cx="682.28" cy="1152.68" r="10.3"/><path class="cls-3" d="M768.89,1115.31H705.62v3.57h59.65l0,78.8a28.06,28.06,0,0,1-56.12,0h-3.63a31.69,31.69,0,0,0,63.37,0l0-82.37Z" transform="translate(-54.73 -155.04)"/><path class="cls-4" d="M716.09,1197.68a21.46,21.46,0,0,0,42.92,0h0v-74.57h3.25v74.57h0a24.71,24.71,0,0,1-49.42,0Z" transform="translate(-54.73 -155.04)"/><path class="cls-4" d="M735.67,1175.17a26.6,26.6,0,1,1,26.6-26.6A26.63,26.63,0,0,1,735.67,1175.17Zm0-49.95A23.35,23.35,0,1,0,759,1148.57,23.38,23.38,0,0,0,735.67,1125.22Z" transform="translate(-54.73 -155.04)"/></g></svg>