<svg id="Layer_1" data-name="Layer 1" xmlns="http://www.w3.org/2000/svg" viewBox="0 0 1140.6 615.08"><defs><style>.cls-1,.cls-2,.cls-4{fill:#fff;}.cls-2{font-size:84.5px;}.cls-2,.cls-4{font-family:Montserrat-Regular, Montserrat;}.cls-3{letter-spacing:-0.01em;}.cls-4{font-size:65px;}.cls-5{letter-spacing:0em;}.cls-6{letter-spacing:-0.01em;}.cls-7{letter-spacing:-0.01em;}.cls-8{letter-spacing:0em;}.cls-9{letter-spacing:-0.01em;}</style></defs><title>step1</title><path class="cls-1" d="M286.59,288.89V272.53H276.22v4.15A44.74,44.74,0,0,1,286.59,288.89Z" transform="translate(-120.47 -105.17)"/><path class="cls-1" d="M276.22,345.53v8.68a28.21,28.21,0,0,1-56.42,0H209.44a38.58,38.58,0,1,0,77.15,0V333.32A44.89,44.89,0,0,1,276.22,345.53Z" transform="translate(-120.47 -105.17)"/><path class="cls-1" d="M248,272.53a38.58,38.58,0,1,0,38.58,38.57A38.57,38.57,0,0,0,248,272.53Zm0,66.78a28.21,28.21,0,1,1,28.21-28.21A28.21,28.21,0,0,1,248,339.31Z" transform="translate(-120.47 -105.17)"/><path class="cls-1" d="M290.42,425.63H207.58c-13.05,0-20.71-1.84-31.62-12.75a32.6,32.6,0,0,1-9.86-25.59V289.54c0-19.74,11-30.23,16.71-34.37a21.58,21.58,0,0,1-.23-6.87,14.54,14.54,0,0,1-3.82-5.4l-.31-.83v-23.7h89.92v9.89h-80V240a4.37,4.37,0,0,0,2.11,1.69l11.53,4-9.69,4.48a18.5,18.5,0,0,0,.87,6l1.06,3.9-3.62,1.81a27.29,27.29,0,0,0-7.39,6.37c-4.79,5.79-7.22,12.94-7.22,21.27v98.39l-.05.35c-.05.35-1.11,9.49,7,17.61,9,9,14.13,9.85,24.63,9.85h82.84c10.5,0,15.67-.89,24.63-9.85,8.14-8.14,7-17.51,7-17.61l-.05-.35V289.54c0-20.1-14.46-27.56-14.61-27.64l-3.62-1.81,1.06-3.9a18.5,18.5,0,0,0,.87-6L296,245.71l11.53-4a4.37,4.37,0,0,0,2.11-1.69V228.26H303.5v-9.89h16.05v23.7l-.31.83a14.54,14.54,0,0,1-3.82,5.4,21.58,21.58,0,0,1-.23,6.87c5.73,4.14,16.71,14.63,16.71,34.37v97.75A32.6,32.6,0,0,1,322,412.88C311.13,423.79,303.47,425.63,290.42,425.63Z" transform="translate(-120.47 -105.17)"/><text class="cls-2" transform="translate(0 399.68)"><tspan class="cls-3">L</tspan><tspan x="47.07" y="0">ogos</tspan></text><rect class="cls-1" x="320.53" y="381.83" width="250" height="142"/><polygon class="cls-1" points="311.03 371.33 547.53 371.33 547.53 357.83 297.53 357.83 297.53 499.83 311.03 499.83 311.03 371.33"/><text class="cls-4" transform="translate(199.53 598.83)">Business Cards</text><path class="cls-1" d="M566,274s46,6,66-9,17-29,9-38-18-27-39-18S596,241,566,274Z" transform="translate(-120.47 -105.17)"/><path class="cls-1" d="M721.35,141.92S761.17,85,705.2,112.84s-72.58,71.91-72.58,71.91-2,26.43,27.2,29.53S721.35,141.92,721.35,141.92Z" transform="translate(-120.47 -105.17)"/><text class="cls-4" transform="translate(337.07 245.43)"><tspan class="cls-5">I</tspan><tspan x="19.96" y="0">llust</tspan><tspan class="cls-5" x="157.62" y="0">r</tspan><tspan class="cls-6" x="183.1" y="0">a</tspan><tspan x="220.87" y="0">tions</tspan></text><circle class="cls-1" cx="906.53" cy="297.83" r="41"/><path class="cls-1" d="M1111,328H943a26.08,26.08,0,0,0-26,26v98a26.08,26.08,0,0,0,26,26h168a26.08,26.08,0,0,0,26-26V354A26.08,26.08,0,0,0,1111,328Zm-84,126a51,51,0,1,1,51-51A51.06,51.06,0,0,1,1027,454Z" transform="translate(-120.47 -105.17)"/><rect class="cls-1" x="815.53" y="201.83" width="57" height="30"/><text class="cls-4" transform="translate(713.88 459.25)">Ph<tspan class="cls-7" x="86.45" y="0">o</tspan><tspan class="cls-8" x="128.31" y="0">t</tspan><tspan x="155.22" y="0">og</tspan><tspan class="cls-9" x="240.11" y="0">r</tspan><tspan x="265.59" y="0">aphy</tspan></text></svg>