<?xml version="1.0" encoding="utf-8"?>
<!-- Generator: Adobe Illustrator 21.1.0, SVG Export Plug-In . SVG Version: 6.00 Build 0)  -->
<svg version="1.1" xmlns="http://www.w3.org/2000/svg" xmlns:xlink="http://www.w3.org/1999/xlink" x="0px" y="0px"
	 viewBox="0 0 1500 1500" style="enable-background:new 0 0 1500 1500;" xml:space="preserve">
<style type="text/css">
	.st0{fill:url(#SVGID_1_);stroke:#FFFFFF;stroke-width:10;stroke-miterlimit:10;}
	.st1{fill:#34C0C8;}
	.st2{display:none;}
	.st3{display:inline;}
	.st4{fill:#FFFFFF;}
	.st5{fill:#F7EE5A;}
	.st6{fill:#F8EE58;}
</style>
<g id="Layer_1">
	<linearGradient id="SVGID_1_" gradientUnits="userSpaceOnUse" x1="186.2241" y1="116.9024" x2="1294.7733" y2="1225.4517">
		<stop  offset="0.5" style="stop-color:#939598"/>
		<stop  offset="0.5" style="stop-color:#6D6E71"/>
	</linearGradient>
	<path class="st0" d="M1381.3,1135.6H99.7c-4.4,0-7.9-3.6-7.9-7.9v-913c0-4.4,3.6-7.9,7.9-7.9h1281.7c4.4,0,7.9,3.6,7.9,7.9v913
		C1389.3,1132,1385.7,1135.6,1381.3,1135.6z"/>
	<path class="st1" d="M856.5,1344.9H636.6c-17.6,0-32-14.4-32-32v-96.8c0-17.6,14.4-32,32-32h219.9c17.6,0,32,14.4,32,32v96.8
		C888.5,1330.5,874.1,1344.9,856.5,1344.9z"/>
	<path class="st1" d="M956.5,1386.5H536.6c-15.5,0-28.3-12.7-28.3-28.3v-36.7c0-15.5,12.7-28.3,28.3-28.3h419.9
		c15.5,0,28.3,12.7,28.3,28.3v36.7C984.8,1373.8,972.1,1386.5,956.5,1386.5z"/>
	<g>
		<path class="st1" d="M1335,1163.2H148.2c-54.8,0-99.4-44.6-99.4-99.4V264.2c0-54.8,44.6-99.4,99.4-99.4H1335
			c54.8,0,99.4,44.6,99.4,99.4v799.6C1434.3,1118.6,1389.8,1163.2,1335,1163.2z M148.2,220c-24.4,0-44.2,19.8-44.2,44.2v799.6
			c0,24.4,19.8,44.2,44.2,44.2H1335c24.4,0,44.2-19.8,44.2-44.2V264.2c0-24.4-19.8-44.2-44.2-44.2H148.2z"/>
	</g>
</g>
<g id="Layer_2" class="st2">
	<g class="st3">
		<path class="st1" d="M497.9,844.8H199.3c-8.6,0-15.7-7-15.7-15.7V679.7c0-8.6,7-15.7,15.7-15.7h298.6c8.6,0,15.7,7,15.7,15.7
			v149.4C513.5,837.8,506.5,844.8,497.9,844.8z"/>
		<path class="st1" d="M888,844.8H589.4c-8.6,0-15.7-7-15.7-15.7V679.7c0-8.6,7-15.7,15.7-15.7H888c8.6,0,15.7,7,15.7,15.7v149.4
			C903.6,837.8,896.6,844.8,888,844.8z"/>
		<path class="st1" d="M1278,844.8H979.5c-8.6,0-15.7-7-15.7-15.7V679.7c0-8.6,7-15.7,15.7-15.7H1278c8.6,0,15.7,7,15.7,15.7v149.4
			C1293.7,837.8,1286.7,844.8,1278,844.8z"/>
		<path class="st1" d="M497.9,1054.2H199.3c-8.6,0-15.7-7-15.7-15.7V889.1c0-8.6,7-15.7,15.7-15.7h298.6c8.6,0,15.7,7,15.7,15.7
			v149.4C513.5,1047.2,506.5,1054.2,497.9,1054.2z"/>
		<path class="st1" d="M888,1054.2H589.4c-8.6,0-15.7-7-15.7-15.7V889.1c0-8.6,7-15.7,15.7-15.7H888c8.6,0,15.7,7,15.7,15.7v149.4
			C903.6,1047.2,896.6,1054.2,888,1054.2z"/>
		<path class="st1" d="M1278,1054.2H979.5c-8.6,0-15.7-7-15.7-15.7V889.1c0-8.6,7-15.7,15.7-15.7H1278c8.6,0,15.7,7,15.7,15.7v149.4
			C1293.7,1047.2,1286.7,1054.2,1278,1054.2z"/>
	</g>
</g>
<g id="Layer_3">
	<g>
		<path class="st4" d="M845.3,268.2H639.6v11.6h194c0,0,0,256.2,0,256.2c0,50.3-40.9,91.2-91.2,91.2c-50.3,0-91.2-40.9-91.2-91.2
			h-11.8c0,56.8,46.2,103,103,103c56.8,0,103-46.2,103-103V268.2L845.3,268.2z"/>
		<g>
			<g>
				<path class="st1" d="M673.6,536.1c0,38.5,31.3,69.8,69.8,69.8c38.5,0,69.8-31.3,69.8-69.8l0,0V293.6h10.6v242.5l0,0
					c0,44.3-36,80.4-80.4,80.4s-80.4-36-80.4-80.4H673.6z"/>
			</g>
			<g>
				<path class="st1" d="M737.3,462.8c-47.7,0-86.5-38.8-86.5-86.5c0-47.7,38.8-86.5,86.5-86.5c47.7,0,86.5,38.8,86.5,86.5
					C823.7,424,784.9,462.8,737.3,462.8z M737.3,300.4c-41.9,0-75.9,34.1-75.9,75.9s34.1,75.9,75.9,75.9s75.9-34.1,75.9-75.9
					S779.1,300.4,737.3,300.4z"/>
			</g>
		</g>
	</g>
</g>
<g id="Layer_4">
	<path class="st4" d="M688.2,792.1H225.1c-29.5,0-53.6-24.1-53.6-53.6v0c0-29.5,24.1-53.6,53.6-53.6h463.1
		c29.5,0,53.6,24.1,53.6,53.6v0C741.7,768,717.6,792.1,688.2,792.1z"/>
	<path class="st5" d="M688.2,918.6H225.1c-29.5,0-53.6-24.1-53.6-53.6v0c0-29.5,24.1-53.6,53.6-53.6h463.1
		c29.5,0,53.6,24.1,53.6,53.6v0C741.7,894.5,717.6,918.6,688.2,918.6z"/>
	<path class="st4" d="M688.2,1044.8H225.1c-29.5,0-53.6-24.1-53.6-53.6v0c0-29.5,24.1-53.6,53.6-53.6h463.1
		c29.5,0,53.6,24.1,53.6,53.6v0C741.7,1020.7,717.6,1044.8,688.2,1044.8z"/>
	<path class="st6" d="M1300.9,1044.8H817.8c-9.9,0-18-8.1-18-18V703c0-9.9,8.1-18,18-18h483.1c9.9,0,18,8.1,18,18v323.8
		C1318.9,1036.7,1310.8,1044.8,1300.9,1044.8z"/>
</g>
</svg>
