<svg id="Layer_1" data-name="Layer 1" xmlns="http://www.w3.org/2000/svg" viewBox="0 0 560.24 696.49"><defs><style>.cls-1{fill:#fff;stroke:#fff;stroke-miterlimit:10;stroke-width:12px;}</style></defs><title>tgj_jar</title><path class="cls-1" d="M442.81,738.24H169.19c-43.09,0-68.39-6.07-104.42-42.1-34.78-34.78-33.44-74.8-32.6-84,0-.31,0-.61,0-.93V288.81c0-60.22,30.93-94.39,50.57-110a10.18,10.18,0,0,0,3.79-9.16A70.47,70.47,0,0,1,86.17,157a10,10,0,0,0-2.7-7.49A47.28,47.28,0,0,1,74,134.78l-.38-1a10.16,10.16,0,0,1-.64-3.53V63.93A10.17,10.17,0,0,1,83.18,53.76H359.81A10.17,10.17,0,0,1,370,63.93v12.3a10.18,10.18,0,0,1-10.18,10.18h-244a10.17,10.17,0,0,0-10.17,10.17v24.5a9.91,9.91,0,0,0,4.7,8.58,12.93,12.93,0,0,0,2.28,1.07l14.35,5a10.17,10.17,0,0,1,.9,18.83l-3,1.39a10.16,10.16,0,0,0-5.83,10.52,93.74,93.74,0,0,0,2.54,12.17l1.31,4.85a10.18,10.18,0,0,1-5.27,11.76l-4.5,2.25s-12.38,6.49-24.41,21c-15.83,19.12-23.85,42.76-23.85,70.27V613.74l-.18,1.18c-.14,1.13-3.65,31.32,23.17,58.13,29.6,29.6,46.66,32.54,81.33,32.54H442.81c34.67,0,51.73-2.94,81.33-32.54,26.87-26.87,23.21-57.83,23.17-58.13l-.18-1.18V288.81c0-66.39-47.78-91.05-48.26-91.29l-4.5-2.25a10.18,10.18,0,0,1-5.27-11.76l1.31-4.85A94.08,94.08,0,0,0,493,166.49,10.16,10.16,0,0,0,487.12,156l-3-1.39a10.17,10.17,0,0,1,.9-18.83l14.34-5a12.51,12.51,0,0,0,2.3-1.08,9.93,9.93,0,0,0,4.69-8.57V96.58a10.17,10.17,0,0,0-10.17-10.17h0A10.18,10.18,0,0,1,486,76.23V63.93a10.17,10.17,0,0,1,10.18-10.17h32.65A10.17,10.17,0,0,1,539,63.93v66.28a10.16,10.16,0,0,1-.64,3.53l-.38,1a47.28,47.28,0,0,1-9.44,14.72,10,10,0,0,0-2.7,7.49,71.41,71.41,0,0,1-.41,12.64,10.19,10.19,0,0,0,3.79,9.16c19.64,15.63,50.57,49.8,50.57,110V611.17c0,.32,0,.62.05.93.84,9.24,2.18,49.26-32.6,84C511.2,732.17,485.9,738.24,442.81,738.24Z" transform="translate(-25.88 -47.76)"/></svg>