<svg id="Layer_1" data-name="Layer 1" xmlns="http://www.w3.org/2000/svg" viewBox="0 0 613.95 613.95"><defs><style>.cls-1{fill:#58595b;}.cls-2{fill:#69e2d3;}</style></defs><title>tgj_proj-logo</title><rect class="cls-1" width="613.95" height="613.95"/><path class="cls-2" d="M1571.1,213.14A109.56,109.56,0,1,0,1680.66,322.7,109.56,109.56,0,0,0,1571.1,213.14Zm0,189.68a80.12,80.12,0,1,1,80.12-80.12A80.12,80.12,0,0,1,1571.1,402.82Z" transform="translate(-1264 -89.02)"/><path class="cls-2" d="M1651.22,227.86V466.92c0,44.18-35.33,80.79-79.51,81.12a80.13,80.13,0,0,1-79.74-67.5,14.79,14.79,0,0,0-14.56-12.61h0a14.7,14.7,0,0,0-14.57,16.87,109.57,109.57,0,0,0,109.09,92.68c60.41-.45,108.73-50.52,108.73-110.93V227.86a14.72,14.72,0,0,0-14.72-14.72h0A14.72,14.72,0,0,0,1651.22,227.86Z" transform="translate(-1264 -89.02)"/><path class="cls-2" d="M1465.17,578.86a153,153,0,0,0,105.74,42.25c84.74,0,153.69-68.94,153.69-153.68V170.89H1429a11.42,11.42,0,1,0,0,22.83h272.74V467.43c0,72.16-58.71,130.86-130.87,130.86a131,131,0,0,1-130.2-117.64,11.66,11.66,0,0,0-11-10.62h-.42A11.42,11.42,0,0,0,1418,482.6,153.57,153.57,0,0,0,1465.17,578.86Z" transform="translate(-1264 -89.02)"/></svg>