<svg id="Layer_3" data-name="Layer 3" xmlns="http://www.w3.org/2000/svg" viewBox="0 0 154.55 278.15"><defs><style>.cls-1{fill:#d1d1d1;}.cls-2{fill:#23e2e9;}</style></defs><title>tgj_logo_form</title><path class="cls-1" d="M168.25,98v8.71H313.72l0,192.17a68.42,68.42,0,0,1-136.85,0H168a77.27,77.27,0,0,0,154.55,0L322.5,98Z" transform="translate(-167.99 -98)"/><path class="cls-2" d="M306.38,179.49c0-.13,0-.26,0-.39s0-.26,0-.39V117h-7.92v31a64.87,64.87,0,1,0,0,62.08v88.74h0a52.34,52.34,0,0,1-104.68,0h-7.93a60.26,60.26,0,0,0,120.53,0h0ZM241.52,236a56.94,56.94,0,1,1,56.94-56.94A57,57,0,0,1,241.52,236Z" transform="translate(-167.99 -98)"/></svg>