<svg xmlns="http://www.w3.org/2000/svg" viewBox="0 0 812.82 1456.51"><defs><style>.cls-1,.cls-2{fill:#fff;stroke:#231f20;stroke-miterlimit:10;}.cls-1{stroke-width:8px;}.cls-2{stroke-width:4px;}</style></defs><title>tgj_logo_form</title><g id="Layer_3" data-name="Layer 3"><path class="cls-1" d="M1151.9,32.75H348.44V78.12H1106l-.19,1000.72c0,196.48-159.85,356.33-356.33,356.33s-356.33-159.85-356.33-356.33H347.08c0,221.89,180.52,402.41,402.41,402.41s402.41-180.52,402.41-402.41l-.2-1046.1Z" transform="translate(-343.08 -28.75)"/><path class="cls-1" d="M1026.54,293V131.88h41.23v947h0c0,173-140.79,313.84-313.84,313.84S440.12,1251.9,440.12,1078.85H481.4c0,150.29,122.27,272.56,272.56,272.56s272.56-122.27,272.56-272.56h0V617.5" transform="translate(-343.08 -28.75)"/><path class="cls-1" d="M1027,616C969.69,721.25,858,792.88,730,792.88c-186.27,0-337.81-151.54-337.81-337.81S543.72,117.27,730,117.27c127.62,0,238.93,71.13,296.38,175.83M730,158.55c-163.51,0-296.53,133-296.53,296.53S566.48,751.6,730,751.6s296.53-133,296.53-296.53S893.49,158.55,730,158.55Z" transform="translate(-343.08 -28.75)"/></g><g id="Layer_4" data-name="Layer 4"><path class="cls-2" d="M566,344.5V329.65h13V308.16h18.25v21.49h18.55V344.5H597.19V379a16.9,16.9,0,0,0,1.78,8.19q1.78,3.25,8,3.25a22.84,22.84,0,0,0,4-.39,16,16,0,0,0,3.86-1.16l.62,14.53a30.62,30.62,0,0,1-5.87,1.47,41.45,41.45,0,0,1-6.5.54q-7.42,0-12.06-2.09a18.26,18.26,0,0,1-7.34-5.72,21.13,21.13,0,0,1-3.71-8.35,48.43,48.43,0,0,1-1-10.13V344.5Z" transform="translate(-343.08 -28.75)"/><path class="cls-2" d="M661.82,327.49A27.92,27.92,0,0,1,674.27,330a24.56,24.56,0,0,1,8.5,6.73,27.25,27.25,0,0,1,4.87,9.59,40.41,40.41,0,0,1,1.55,11.13v46.39H670.64V363.05a50.88,50.88,0,0,0-.46-6.73,19.42,19.42,0,0,0-1.93-6.34,12.68,12.68,0,0,0-4.17-4.72,12.51,12.51,0,0,0-7.19-1.86,16.46,16.46,0,0,0-7.73,1.7,16,16,0,0,0-5.41,4.56,20.34,20.34,0,0,0-3.25,6.42,24.86,24.86,0,0,0-1.08,7.27v40.51H620.85V287H639.4v53h.31a17.78,17.78,0,0,1,3.17-4.56,25.09,25.09,0,0,1,4.87-4,25.56,25.56,0,0,1,6.34-2.86A26.49,26.49,0,0,1,661.82,327.49Z" transform="translate(-343.08 -28.75)"/><path class="cls-2" d="M773,367.69v2.47a20.1,20.1,0,0,1-.15,2.47H716.4a18.34,18.34,0,0,0,2.09,7.34,18.63,18.63,0,0,0,4.72,5.72,23.41,23.41,0,0,0,6.65,3.79,21.84,21.84,0,0,0,7.73,1.39,24.76,24.76,0,0,0,11.75-2.55,22,22,0,0,0,7.89-7l12.37,9.9Q758.61,406,737.74,406a45.32,45.32,0,0,1-15.93-2.71,37.48,37.48,0,0,1-12.6-7.65,34.48,34.48,0,0,1-8.35-12.14,41.84,41.84,0,0,1-3-16.31,42.59,42.59,0,0,1,3-16.31,36.32,36.32,0,0,1,20.72-20.56,41.67,41.67,0,0,1,15.54-2.86,39.18,39.18,0,0,1,14.3,2.55,31.06,31.06,0,0,1,11.37,7.58,35.18,35.18,0,0,1,7.5,12.52A51.72,51.72,0,0,1,773,367.69Zm-18.55-8.35a22.89,22.89,0,0,0-1-6.8,15.16,15.16,0,0,0-8.66-9.66A19.22,19.22,0,0,0,737,341.4a20.87,20.87,0,0,0-14.15,5,18.31,18.31,0,0,0-6.42,12.91Z" transform="translate(-343.08 -28.75)"/><path class="cls-2" d="M574.84,427.41V495a62.26,62.26,0,0,1-2.47,18.17,35.19,35.19,0,0,1-7.65,13.76,34.57,34.57,0,0,1-13.06,8.74,51.2,51.2,0,0,1-18.71,3.09,62.66,62.66,0,0,1-9.51-.77,66.06,66.06,0,0,1-9.9-2.32,59.73,59.73,0,0,1-9.35-3.86,45.17,45.17,0,0,1-8-5.26l10.67-14.38A38.29,38.29,0,0,0,519,520a37,37,0,0,0,13.76,2.71A28.7,28.7,0,0,0,544,520.72a18.12,18.12,0,0,0,7.27-5.35,21,21,0,0,0,3.86-8.07,42.34,42.34,0,0,0,1.16-10.24v-5.43H556A26.13,26.13,0,0,1,545.7,500a33,33,0,0,1-14,2.89,36.21,36.21,0,0,1-15.15-3.09A34.3,34.3,0,0,1,505,491.43a38.15,38.15,0,0,1-7.34-12.29,42.23,42.23,0,0,1-2.63-14.92,44.56,44.56,0,0,1,2.55-15.15,37,37,0,0,1,7.27-12.37,34.61,34.61,0,0,1,11.44-8.35,35.69,35.69,0,0,1,15.08-3.09,33.67,33.67,0,0,1,14.69,3.25,24.81,24.81,0,0,1,10.82,10.05h.31V427.41Zm-39.58,13a21.07,21.07,0,0,0-9,1.85,19.52,19.52,0,0,0-6.65,5,22.44,22.44,0,0,0-4.17,7.47,28.47,28.47,0,0,0-1.47,9.25,25.68,25.68,0,0,0,1.47,8.63,24.67,24.67,0,0,0,4.17,7.48,20.42,20.42,0,0,0,6.65,5.32,19.33,19.33,0,0,0,8.89,2,21.07,21.07,0,0,0,16.16-7.09,23.14,23.14,0,0,0,4.41-7.47,25.69,25.69,0,0,0,1.55-8.86,26.81,26.81,0,0,0-1.55-9.09,23,23,0,0,0-4.41-7.55,20.54,20.54,0,0,0-6.88-5.08A21.61,21.61,0,0,0,535.26,440.4Z" transform="translate(-343.08 -28.75)"/><path class="cls-2" d="M588.45,427.41h17.78v12.37h.31a27.07,27.07,0,0,1,8.66-10.51,21.6,21.6,0,0,1,13-4q1.08,0,2.32.08a8.72,8.72,0,0,1,2.16.39v17a26,26,0,0,0-3.17-.62,22.08,22.08,0,0,0-2.55-.15q-6.34,0-10.21,2.32a18.52,18.52,0,0,0-6,5.57,19.92,19.92,0,0,0-2.94,6.65,25.79,25.79,0,0,0-.77,5.41v39.74H588.45Z" transform="translate(-343.08 -28.75)"/><path class="cls-2" d="M680.14,492.2h-.46a20.71,20.71,0,0,1-9,8.12,30.46,30.46,0,0,1-14.07,3.17,40.42,40.42,0,0,1-9.35-1.16,27.8,27.8,0,0,1-9-3.87,22.43,22.43,0,0,1-6.8-7.11,20.46,20.46,0,0,1-2.71-10.9q0-8.35,4.72-13.3a30.52,30.52,0,0,1,12.14-7.58,68.52,68.52,0,0,1,16.47-3.48q9-.85,17.7-.85v-1.86q0-7-5-10.28a21.23,21.23,0,0,0-12-3.32,26.87,26.87,0,0,0-11.29,2.47,30.38,30.38,0,0,0-9,6L633,437a41.88,41.88,0,0,1,14.61-8.81,49.82,49.82,0,0,1,16.78-2.94q9.89,0,16.31,2.78a26.61,26.61,0,0,1,10.13,7.27A26,26,0,0,1,696,445.35a43.55,43.55,0,0,1,1.47,11.13v45.15H680.14Zm-.31-24.43h-4.18q-4.49,0-9.43.39a41.1,41.1,0,0,0-9.12,1.7,19.48,19.48,0,0,0-7,3.71,8.22,8.22,0,0,0-2.78,6.57,7.89,7.89,0,0,0,1.16,4.41,8.88,8.88,0,0,0,3,2.86,13.44,13.44,0,0,0,4.18,1.55,23.57,23.57,0,0,0,4.64.46q9.58,0,14.53-5.1t4.95-13.92Z" transform="translate(-343.08 -28.75)"/><path class="cls-2" d="M728.22,427.41v10.36h.46a26.93,26.93,0,0,1,3.63-4.41,24.05,24.05,0,0,1,5.49-4,35.33,35.33,0,0,1,7.34-2.94,33.74,33.74,0,0,1,9.2-1.16,34.61,34.61,0,0,1,26,11.29,37.4,37.4,0,0,1,7.42,12.37,43.84,43.84,0,0,1,2.63,15.31,45.67,45.67,0,0,1-2.55,15.39,37.73,37.73,0,0,1-7.27,12.52,35,35,0,0,1-11.44,8.5,35.33,35.33,0,0,1-15.23,3.17,32.16,32.16,0,0,1-14.46-3.25,24.6,24.6,0,0,1-10.13-8.81H729v47H710.44V427.41Zm43.29,36.8a28.94,28.94,0,0,0-1.32-8.58,24,24,0,0,0-3.94-7.65,19.85,19.85,0,0,0-6.65-5.49,20.22,20.22,0,0,0-9.43-2.09,19,19,0,0,0-9.12,2.16,23.39,23.39,0,0,0-6.88,5.57,23.75,23.75,0,0,0-4.33,7.73,26.77,26.77,0,0,0-1.47,8.66,26.08,26.08,0,0,0,1.47,8.58,23.88,23.88,0,0,0,4.33,7.65,22.3,22.3,0,0,0,6.88,5.49,21.31,21.31,0,0,0,18.56-.08,20.64,20.64,0,0,0,6.65-5.57,23.83,23.83,0,0,0,3.94-7.73A29.69,29.69,0,0,0,771.52,464.21Z" transform="translate(-343.08 -28.75)"/><path class="cls-2" d="M840.94,425.25a27.91,27.91,0,0,1,12.45,2.55,24.54,24.54,0,0,1,8.5,6.73,27.24,27.24,0,0,1,4.87,9.59,40.42,40.42,0,0,1,1.55,11.13v46.39H849.75V460.81a50.86,50.86,0,0,0-.46-6.73,19.43,19.43,0,0,0-1.93-6.34,12.69,12.69,0,0,0-4.17-4.72,12.51,12.51,0,0,0-7.19-1.86,16.47,16.47,0,0,0-7.73,1.7,16,16,0,0,0-5.41,4.56,20.34,20.34,0,0,0-3.25,6.42,24.85,24.85,0,0,0-1.08,7.27v40.51H800V384.74h18.55v53h.31a17.81,17.81,0,0,1,3.17-4.56,25.15,25.15,0,0,1,4.87-4,25.59,25.59,0,0,1,6.34-2.86A26.52,26.52,0,0,1,840.94,425.25Z" transform="translate(-343.08 -28.75)"/><path class="cls-2" d="M879,402.21a10.69,10.69,0,0,1,3.32-7.81,11.42,11.42,0,0,1,8.43-3.32,12.28,12.28,0,0,1,8.58,3.17,10.85,10.85,0,0,1,0,15.93,12.27,12.27,0,0,1-8.58,3.17A11.41,11.41,0,0,1,882.3,410,10.68,10.68,0,0,1,879,402.21Zm2.63,25.2h18.55v74.22H881.61Z" transform="translate(-343.08 -28.75)"/><path class="cls-2" d="M964.79,448a16.4,16.4,0,0,0-6.49-5.18,20.11,20.11,0,0,0-8.81-2.09,18.59,18.59,0,0,0-9,2.09,19.48,19.48,0,0,0-6.42,5.49,23.66,23.66,0,0,0-3.79,7.65,30.53,30.53,0,0,0-1.24,8.58,28.93,28.93,0,0,0,1.31,8.58,23.91,23.91,0,0,0,3.94,7.65,20,20,0,0,0,6.57,5.49,19.37,19.37,0,0,0,9.2,2.09,23.5,23.5,0,0,0,8.66-1.7,16.52,16.52,0,0,0,7-4.95l11.6,11.75a30.71,30.71,0,0,1-11.83,7.65,43.8,43.8,0,0,1-15.54,2.71,45.77,45.77,0,0,1-15.54-2.63,36.25,36.25,0,0,1-21.49-20.1,41,41,0,0,1-3.17-16.54,40.17,40.17,0,0,1,3.17-16.23,37.16,37.16,0,0,1,8.58-12.37A38.36,38.36,0,0,1,934.1,428a43,43,0,0,1,31.23.31,30,30,0,0,1,12.14,8.5Z" transform="translate(-343.08 -28.75)"/><path class="cls-2" d="M776.11,552.14v78.7a70.63,70.63,0,0,1-1.08,12.6,26.51,26.51,0,0,1-4.1,10.36,21.51,21.51,0,0,1-8.19,7q-5.18,2.63-13.53,2.63a35.14,35.14,0,0,1-4.64-.31q-2.32-.31-3.71-.62l1.55-15.77a20.41,20.41,0,0,0,2.63.46,22.92,22.92,0,0,0,2.47.15,9.94,9.94,0,0,0,5.26-1.24,8.27,8.27,0,0,0,3.09-3.4,14.78,14.78,0,0,0,1.39-5,57,57,0,0,0,.31-6.11V552.14Zm-21.18-25.2a10.68,10.68,0,0,1,3.32-7.81,11.42,11.42,0,0,1,8.43-3.32,12.28,12.28,0,0,1,8.58,3.17,10.86,10.86,0,0,1,0,15.93,12.27,12.27,0,0,1-8.58,3.17,11.41,11.41,0,0,1-8.43-3.32A10.68,10.68,0,0,1,754.93,526.94Z" transform="translate(-343.08 -28.75)"/><path class="cls-2" d="M836.11,616.93h-.46a20.71,20.71,0,0,1-9,8.12,30.46,30.46,0,0,1-14.07,3.17,40.42,40.42,0,0,1-9.35-1.16,27.8,27.8,0,0,1-9-3.87,22.43,22.43,0,0,1-6.8-7.11,20.46,20.46,0,0,1-2.71-10.9q0-8.35,4.72-13.3a30.52,30.52,0,0,1,12.14-7.58,68.52,68.52,0,0,1,16.47-3.48q9-.85,17.7-.85v-1.86q0-7-5-10.28a21.23,21.23,0,0,0-12-3.32A26.87,26.87,0,0,0,807.5,567a30.38,30.38,0,0,0-9,6l-9.59-11.29a41.88,41.88,0,0,1,14.61-8.81A49.82,49.82,0,0,1,820.33,550q9.89,0,16.31,2.78A26.61,26.61,0,0,1,846.77,560,26,26,0,0,1,852,570.08a43.55,43.55,0,0,1,1.47,11.13v45.15H836.11Zm-.31-24.43h-4.18q-4.49,0-9.43.39a41.1,41.1,0,0,0-9.12,1.7,19.48,19.48,0,0,0-7,3.71,8.22,8.22,0,0,0-2.78,6.57,7.89,7.89,0,0,0,1.16,4.41,8.88,8.88,0,0,0,3,2.86,13.44,13.44,0,0,0,4.18,1.55,23.57,23.57,0,0,0,4.64.46q9.58,0,14.53-5.1t4.95-13.92Z" transform="translate(-343.08 -28.75)"/><path class="cls-2" d="M866.41,552.14h17.78v12.37h.31A27.07,27.07,0,0,1,893.16,554a21.6,21.6,0,0,1,13-4q1.08,0,2.32.08a8.72,8.72,0,0,1,2.16.39v17a26,26,0,0,0-3.17-.62,22.08,22.08,0,0,0-2.55-.15q-6.34,0-10.21,2.32a18.52,18.52,0,0,0-6,5.57,19.92,19.92,0,0,0-2.94,6.65,25.79,25.79,0,0,0-.77,5.41v39.74H866.41Z" transform="translate(-343.08 -28.75)"/></g></svg>