<svg id="Layer_1" data-name="Layer 1" xmlns="http://www.w3.org/2000/svg" viewBox="0 0 316.75 395.47"><defs><style>.cls-1{fill:#231f20;}</style></defs><title>tgj_var1</title><path class="cls-1" d="M377.72,332.82V301.6H357.94v7.92A85.53,85.53,0,0,1,377.72,332.82Z" transform="translate(-147.62 -198.27)"/><path class="cls-1" d="M357.94,440.89v16.58a53.83,53.83,0,0,1-107.65,0H230.51a73.61,73.61,0,0,0,147.21,0V417.59A85.38,85.38,0,0,1,357.94,440.89Z" transform="translate(-147.62 -198.27)"/><path class="cls-1" d="M304.11,301.6a73.61,73.61,0,1,0,73.61,73.61A73.61,73.61,0,0,0,304.11,301.6Zm0,127.43a53.83,53.83,0,1,1,53.83-53.82A53.83,53.83,0,0,1,304.11,429Z" transform="translate(-147.62 -198.27)"/><path class="cls-1" d="M385,593.73H227c-24.9,0-39.52-3.51-60.33-24.32-20.45-20.45-19.29-44-18.81-48.82V334.07c0-37.67,21-57.7,31.88-65.58a41.26,41.26,0,0,1-.44-13.12A27.63,27.63,0,0,1,172,245.08l-.59-1.59V198.27H343v18.86H190.25V239.5a8.3,8.3,0,0,0,4,3.24l22,7.69L197.79,259c-.14,1.66,0,5.16,1.66,11.46l2,7.44-6.9,3.45a51.87,51.87,0,0,0-14.11,12.15c-9.14,11-13.78,24.7-13.78,40.6V521.8l-.1.68c-.08.65-2.11,18.1,13.39,33.59,17.1,17.1,27,18.8,47,18.8H385c20,0,29.89-1.7,47-18.8,15.53-15.52,13.41-33.41,13.39-33.59l-.1-.68V334.07c0-38.36-27.61-52.61-27.89-52.75l-6.9-3.45,2-7.44c1.7-6.3,1.8-9.8,1.66-11.46l-18.48-8.54,22-7.69a8.46,8.46,0,0,0,4-3.22V217.13H410V198.27h30.62v45.22l-.59,1.59a27.63,27.63,0,0,1-7.28,10.29,41.26,41.26,0,0,1-.44,13.12c10.93,7.88,31.88,27.91,31.88,65.58V520.59c.48,4.79,1.64,28.37-18.81,48.82C424.56,590.22,409.94,593.73,385,593.73Z" transform="translate(-147.62 -198.27)"/></svg>