<?xml version="1.0" encoding="utf-8"?>
<!-- Generator: Adobe Illustrator 21.1.0, SVG Export Plug-In . SVG Version: 6.00 Build 0)  -->
<svg version="1.1" xmlns="http://www.w3.org/2000/svg" xmlns:xlink="http://www.w3.org/1999/xlink" x="0px" y="0px"
	 viewBox="0 0 810.1 1443.1" style="enable-background:new 0 0 810.1 1443.1;" xml:space="preserve">
<style type="text/css">
	.st0{display:none;}
	.st1{display:inline;fill:#292929;}
	.st2{display:inline;fill:#2E3192;}
	.st3{display:inline;fill:#FFFFFF;}
	.st4{display:inline;}
	.st5{clip-path:url(#SVGID_2_);fill:#FFFFFF;}
	.st6{fill:#4F4F50;}
	.st7{fill:#5BC7D6;}
	.st8{fill:#2E3192;}
</style>
<g id="Layer_1" class="st0">
	<rect x="-344.8" y="-35.7" class="st1" width="1500" height="1500"/>
</g>
<g id="Layer_2" class="st0">
</g>
<g id="Fourth_of_July" class="st0">
	<circle class="st2" cx="388.5" cy="492.7" r="234.9"/>
	<polygon class="st3" points="326.4,294.8 341.2,324.8 374.3,329.6 350.3,352.9 356,385.9 326.4,370.3 296.8,385.9 302.5,352.9 
		278.5,329.6 311.6,324.8 	"/>
	<polygon class="st3" points="440.3,293.3 455.1,323.3 488.2,328.1 464.2,351.4 469.9,384.4 440.3,368.8 410.7,384.4 416.4,351.4 
		392.4,328.1 425.5,323.3 	"/>
	<polygon class="st3" points="272.6,408.7 287.4,438.7 320.5,443.5 296.6,466.8 302.2,499.8 272.6,484.2 243.1,499.8 248.7,466.8 
		224.8,443.5 257.8,438.7 	"/>
	<polygon class="st3" points="386.5,407.2 401.3,437.2 434.4,442 410.5,465.3 416.1,498.3 386.5,482.7 357,498.3 362.6,465.3 
		338.7,442 371.8,437.2 	"/>
	<polygon class="st3" points="500.5,408.7 515.2,438.7 548.3,443.5 524.4,466.8 530,499.8 500.5,484.2 470.9,499.8 476.5,466.8 
		452.6,443.5 485.7,438.7 	"/>
	<polygon class="st3" points="329.6,522.6 344.4,552.6 377.5,557.4 353.5,580.7 359.2,613.7 329.6,598.1 300,613.7 305.7,580.7 
		281.7,557.4 314.8,552.6 	"/>
	<polygon class="st3" points="443.5,521.1 458.3,551.1 491.4,555.9 467.4,579.2 473.1,612.2 443.5,596.6 413.9,612.2 419.6,579.2 
		395.6,555.9 428.7,551.1 	"/>
	<g class="st4">
		<defs>
			<circle id="SVGID_1_" cx="389.5" cy="490.1" r="226.8"/>
		</defs>
		<clipPath id="SVGID_2_">
			<use xlink:href="#SVGID_1_"  style="overflow:visible;"/>
		</clipPath>
		<polygon class="st5" points="212.5,293.3 227.3,323.3 260.4,328.1 236.4,351.4 242.1,384.4 212.5,368.8 182.9,384.4 188.5,351.4 
			164.6,328.1 197.7,323.3 		"/>
		<polygon class="st5" points="554.2,294.8 569,324.8 602.1,329.6 578.1,352.9 583.8,385.9 554.2,370.3 524.6,385.9 530.3,352.9 
			506.3,329.6 539.4,324.8 		"/>
		<polygon class="st5" points="158.7,407.2 173.5,437.2 206.6,442 182.7,465.3 188.3,498.3 158.7,482.7 129.1,498.3 134.8,465.3 
			110.9,442 143.9,437.2 		"/>
		<polygon class="st5" points="618.3,408.7 633.1,438.7 666.1,443.5 642.2,466.8 647.9,499.8 618.3,484.2 588.7,499.8 594.3,466.8 
			570.4,443.5 603.5,438.7 		"/>
		<polygon class="st5" points="215.7,521.1 230.5,551.1 263.6,555.9 239.6,579.2 245.3,612.2 215.7,596.6 186.1,612.2 191.8,579.2 
			167.8,555.9 200.9,551.1 		"/>
		<polygon class="st5" points="557.4,522.6 572.2,552.6 605.3,557.4 581.3,580.7 587,613.7 557.4,598.1 527.8,613.7 533.5,580.7 
			509.5,557.4 542.6,552.6 		"/>
		<polygon class="st5" points="276.6,636.5 291.4,666.5 324.4,671.3 300.5,694.6 306.1,727.6 276.6,712 247,727.6 252.6,694.6 
			228.7,671.3 261.8,666.5 		"/>
		<polygon class="st5" points="390.5,635 405.3,665 438.3,669.8 414.4,693.1 420,726.1 390.5,710.5 360.9,726.1 366.5,693.1 
			342.6,669.8 375.7,665 		"/>
		<polygon class="st5" points="504.4,636.5 519.2,666.5 552.2,671.3 528.3,694.6 534,727.6 504.4,712 474.8,727.6 480.4,694.6 
			456.5,671.3 489.6,666.5 		"/>
	</g>
</g>
<g id="Layer_3">
	<path class="st6" d="M9.7,7.9v44.7h746.2l-0.2,985.7c0,193.5-157.4,351-351,351c-193.5,0-351-157.4-351-351H8.3
		c0,218.6,177.8,396.4,396.4,396.4c218.6,0,396.4-177.8,396.4-396.4L800.9,7.9H9.7z"/>
	<path class="st7" d="M718.2,425.8c0-0.7,0-1.3,0-2s0-1.3,0-2V105.5h-40.6v159.1C621.1,161.3,511.3,91.1,385.5,91.1
		C202,91.1,52.8,240.4,52.8,423.9c0,183.5,149.3,332.7,332.7,332.7c125.8,0,235.6-70.2,292.1-173.5v455.2l0,0
		c0,148-120.4,268.5-268.5,268.5c-148,0-268.5-120.4-268.5-268.5H100c0,170.5,138.7,309.1,309.1,309.1s309.1-138.7,309.1-309.1l0,0
		V425.8z M385.5,715.9c-161.1,0-292.1-131-292.1-292.1s131-292.1,292.1-292.1s292.1,131,292.1,292.1S546.6,715.9,385.5,715.9z"/>
</g>
<g id="Layer_6" class="st0">
</g>
<g id="Layer_4" class="st0">
	<g class="st4">
		<g>
			<path class="st8" d="M221.2,308.7v-14.8h13v-21.5h18.2v21.5H271v14.8h-18.6v34.5c0,3.3,0.6,6,1.8,8.2c1.2,2.2,3.8,3.2,8,3.2
				c1.2,0,2.6-0.1,4-0.4c1.4-0.3,2.7-0.6,3.9-1.2l0.6,14.5c-1.6,0.6-3.6,1.1-5.9,1.5c-2.3,0.4-4.4,0.5-6.5,0.5
				c-4.9,0-9-0.7-12.1-2.1c-3.1-1.4-5.5-3.3-7.3-5.7c-1.8-2.4-3-5.2-3.7-8.3c-0.7-3.1-1-6.5-1-10.1v-34.6H221.2z"/>
			<path class="st8" d="M317,291.7c4.8,0,9,0.9,12.4,2.6c3.5,1.7,6.3,3.9,8.5,6.7c2.2,2.8,3.8,6,4.9,9.6c1,3.6,1.5,7.3,1.5,11.1
				v46.4h-18.6v-40.8c0-2.2-0.2-4.4-0.5-6.7s-1-4.4-1.9-6.3c-1-1.9-2.4-3.5-4.2-4.7c-1.8-1.2-4.2-1.9-7.2-1.9c-3,0-5.6,0.6-7.7,1.7
				c-2.2,1.1-4,2.7-5.4,4.6c-1.4,1.9-2.5,4-3.2,6.4c-0.7,2.4-1.1,4.8-1.1,7.3v40.5h-18.6V251.2h18.6v53h0.3c0.7-1.5,1.8-3.1,3.2-4.6
				c1.4-1.5,3-2.8,4.9-4c1.9-1.2,4-2.1,6.3-2.9C311.7,292.1,314.3,291.7,317,291.7z"/>
			<path class="st8" d="M428.2,331.9c0,0.8,0,1.7,0,2.5c0,0.8-0.1,1.7-0.2,2.5h-56.4c0.2,2.7,0.9,5.1,2.1,7.3
				c1.2,2.2,2.8,4.1,4.7,5.7c2,1.6,4.2,2.9,6.6,3.8c2.5,0.9,5,1.4,7.7,1.4c4.6,0,8.6-0.9,11.8-2.6c3.2-1.7,5.8-4,7.9-7l12.4,9.9
				c-7.3,9.9-17.9,14.8-31.9,14.8c-5.8,0-11.1-0.9-15.9-2.7c-4.8-1.8-9-4.4-12.6-7.7c-3.6-3.3-6.3-7.3-8.4-12.1
				c-2-4.8-3-10.2-3-16.3c0-6,1-11.4,3-16.3c2-4.9,4.8-9.1,8.3-12.5c3.5-3.5,7.7-6.1,12.4-8c4.8-1.9,10-2.9,15.5-2.9
				c5.2,0,9.9,0.9,14.3,2.6c4.4,1.7,8.2,4.2,11.4,7.6c3.2,3.4,5.7,7.5,7.5,12.5C427.3,319.4,428.2,325.2,428.2,331.9z M409.7,323.6
				c0-2.4-0.3-4.6-1-6.8c-0.7-2.2-1.7-4.1-3.2-5.7c-1.4-1.6-3.3-3-5.5-3.9c-2.2-1-4.8-1.5-7.8-1.5c-5.6,0-10.3,1.7-14.1,5
				c-3.9,3.4-6,7.7-6.4,12.9H409.7z"/>
		</g>
		<g>
			<path class="st8" d="M230.1,391.7v67.6c0,6.7-0.8,12.8-2.5,18.2c-1.6,5.4-4.2,10-7.7,13.8c-3.5,3.8-7.8,6.7-13.1,8.7
				c-5.3,2.1-11.5,3.1-18.7,3.1c-3,0-6.2-0.3-9.5-0.8c-3.4-0.5-6.6-1.3-9.9-2.3c-3.2-1-6.4-2.3-9.4-3.9c-3-1.5-5.7-3.3-8-5.3
				l10.7-14.4c3.6,3.4,7.7,6,12.2,7.8c4.5,1.8,9.1,2.7,13.8,2.7c4.4,0,8.2-0.6,11.2-1.9c3-1.3,5.5-3.1,7.3-5.4
				c1.8-2.3,3.1-5,3.9-8.1c0.8-3.1,1.2-6.5,1.2-10.2v-5.4h-0.3c-2.7,3.6-6.1,6.4-10.3,8.4c-4.2,1.9-8.8,2.9-14,2.9
				c-5.6,0-10.6-1-15.2-3.1c-4.5-2.1-8.4-4.8-11.5-8.4c-3.1-3.5-5.6-7.6-7.3-12.3c-1.8-4.7-2.6-9.7-2.6-14.9
				c0-5.4,0.9-10.4,2.6-15.2c1.7-4.7,4.1-8.9,7.3-12.4c3.1-3.5,7-6.3,11.4-8.4c4.5-2.1,9.5-3.1,15.1-3.1c5.3,0,10.2,1.1,14.7,3.2
				c4.5,2.2,8.1,5.5,10.8,10.1h0.3v-11.1H230.1z M190.5,404.7c-3.4,0-6.4,0.6-9,1.9c-2.6,1.2-4.8,2.9-6.6,5
				c-1.8,2.1-3.2,4.6-4.2,7.5c-1,2.9-1.5,6-1.5,9.2c0,3,0.5,5.9,1.5,8.6c1,2.8,2.4,5.3,4.2,7.5c1.8,2.2,4,4,6.6,5.3
				c2.6,1.3,5.6,2,8.9,2c3.4,0,6.5-0.6,9.2-1.9c2.7-1.3,5-3,7-5.2c1.9-2.2,3.4-4.6,4.4-7.5c1-2.8,1.5-5.8,1.5-8.9
				c0-3.2-0.5-6.2-1.5-9.1c-1-2.9-2.5-5.4-4.4-7.6c-1.9-2.2-4.2-3.9-6.9-5.1C196.9,405.3,193.9,404.7,190.5,404.7z"/>
			<path class="st8" d="M243.7,391.7h17.8V404h0.3c2.1-4.3,4.9-7.8,8.7-10.5c3.7-2.7,8-4,13-4c0.7,0,1.5,0,2.3,0.1
				c0.8,0.1,1.5,0.2,2.2,0.4v17c-1.2-0.3-2.3-0.5-3.2-0.6c-0.9-0.1-1.7-0.2-2.6-0.2c-4.2,0-7.6,0.8-10.2,2.3c-2.6,1.5-4.6,3.4-6,5.6
				c-1.4,2.2-2.4,4.4-2.9,6.6c-0.5,2.3-0.8,4.1-0.8,5.4v39.7h-18.6V391.7z"/>
			<path class="st8" d="M335.4,456.5h-0.5c-1.9,3.3-4.8,6-9,8.1c-4.1,2.1-8.8,3.2-14.1,3.2c-3,0-6.1-0.4-9.4-1.2
				c-3.2-0.8-6.2-2.1-9-3.9c-2.7-1.8-5-4.2-6.8-7.1c-1.8-2.9-2.7-6.6-2.7-10.9c0-5.6,1.6-10,4.7-13.3c3.1-3.3,7.2-5.8,12.1-7.6
				c4.9-1.8,10.4-2.9,16.5-3.5c6-0.6,11.9-0.9,17.7-0.9v-1.9c0-4.6-1.7-8.1-5-10.3c-3.4-2.2-7.3-3.3-12-3.3c-3.9,0-7.7,0.8-11.3,2.5
				c-3.6,1.6-6.6,3.7-9,6l-9.6-11.3c4.2-3.9,9.1-6.9,14.6-8.8c5.5-2,11.1-2.9,16.8-2.9c6.6,0,12,0.9,16.3,2.8
				c4.3,1.9,7.7,4.3,10.1,7.3c2.5,3,4.2,6.3,5.2,10.1c1,3.7,1.5,7.4,1.5,11.1v45.1h-17.3V456.5z M335.1,432h-4.2
				c-3,0-6.1,0.1-9.4,0.4c-3.3,0.3-6.3,0.8-9.1,1.7c-2.8,0.9-5.1,2.1-7,3.7c-1.9,1.6-2.8,3.8-2.8,6.6c0,1.8,0.4,3.2,1.2,4.4
				c0.8,1.2,1.8,2.1,3,2.9c1.2,0.7,2.6,1.2,4.2,1.5c1.5,0.3,3.1,0.5,4.6,0.5c6.4,0,11.2-1.7,14.5-5.1c3.3-3.4,4.9-8,4.9-13.9V432z"
				/>
			<path class="st8" d="M383.4,391.7V402h0.5c0.9-1.4,2.1-2.9,3.6-4.4c1.5-1.5,3.3-2.8,5.5-4c2.2-1.2,4.6-2.2,7.3-2.9
				c2.7-0.8,5.8-1.2,9.2-1.2c5.3,0,10.1,1,14.5,3c4.4,2,8.2,4.8,11.4,8.3c3.2,3.5,5.7,7.6,7.4,12.4c1.8,4.7,2.6,9.8,2.6,15.3
				c0,5.5-0.9,10.6-2.6,15.4c-1.7,4.8-4.1,9-7.3,12.5c-3.1,3.6-7,6.4-11.4,8.5c-4.5,2.1-9.6,3.2-15.2,3.2c-5.3,0-10.1-1.1-14.5-3.2
				c-4.4-2.2-7.8-5.1-10.1-8.8h-0.3v47h-18.6V391.7H383.4z M426.7,428.5c0-2.9-0.4-5.7-1.3-8.6c-0.9-2.8-2.2-5.4-3.9-7.7
				c-1.8-2.3-4-4.1-6.6-5.5c-2.7-1.4-5.8-2.1-9.4-2.1c-3.4,0-6.4,0.7-9.1,2.2c-2.7,1.4-5,3.3-6.9,5.6c-1.9,2.3-3.3,4.8-4.3,7.7
				c-1,2.9-1.5,5.8-1.5,8.7c0,2.9,0.5,5.7,1.5,8.6c1,2.8,2.4,5.4,4.3,7.7c1.9,2.3,4.2,4.1,6.9,5.5c2.7,1.4,5.7,2.1,9.1,2.1
				c3.6,0,6.8-0.7,9.4-2.2c2.7-1.4,4.9-3.3,6.6-5.6c1.8-2.3,3.1-4.8,3.9-7.7C426.3,434.2,426.7,431.4,426.7,428.5z"/>
			<path class="st8" d="M496.2,389.5c4.8,0,9,0.8,12.4,2.6c3.5,1.7,6.3,3.9,8.5,6.7c2.2,2.8,3.8,6,4.9,9.6c1,3.6,1.5,7.3,1.5,11.1
				v46.4H505v-40.8c0-2.2-0.2-4.4-0.5-6.7c-0.3-2.3-1-4.4-1.9-6.3c-1-1.9-2.4-3.5-4.2-4.7c-1.8-1.2-4.2-1.9-7.2-1.9
				c-3,0-5.6,0.6-7.7,1.7c-2.2,1.1-4,2.7-5.4,4.6c-1.4,1.9-2.5,4-3.2,6.4c-0.7,2.4-1.1,4.8-1.1,7.3v40.5h-18.6V349h18.6v53h0.3
				c0.7-1.5,1.8-3.1,3.2-4.6c1.4-1.5,3-2.8,4.9-4c1.9-1.2,4-2.1,6.3-2.9C490.8,389.9,493.4,389.5,496.2,389.5z"/>
			<path class="st8" d="M534.2,366.5c0-3,1.1-5.6,3.3-7.8c2.2-2.2,5-3.3,8.4-3.3c3.4,0,6.3,1.1,8.6,3.2c2.3,2.1,3.5,4.8,3.5,8
				c0,3.2-1.2,5.9-3.5,8c-2.3,2.1-5.2,3.2-8.6,3.2c-3.4,0-6.2-1.1-8.4-3.3C535.3,372.1,534.2,369.5,534.2,366.5z M536.8,391.7h18.6
				v74.2h-18.6V391.7z"/>
			<path class="st8" d="M620,412.2c-1.4-2.1-3.6-3.8-6.5-5.2c-2.9-1.4-5.8-2.1-8.8-2.1c-3.4,0-6.4,0.7-9,2.1
				c-2.6,1.4-4.7,3.2-6.4,5.5c-1.7,2.3-3,4.8-3.8,7.7c-0.8,2.8-1.2,5.7-1.2,8.6c0,2.9,0.4,5.7,1.3,8.6c0.9,2.8,2.2,5.4,3.9,7.7
				c1.8,2.3,3.9,4.1,6.6,5.5c2.6,1.4,5.7,2.1,9.2,2.1c2.9,0,5.8-0.6,8.7-1.7c2.9-1.1,5.2-2.8,7-4.9l11.6,11.8
				c-3.1,3.3-7,5.9-11.8,7.7s-10,2.7-15.5,2.7c-5.5,0-10.6-0.9-15.5-2.6c-4.9-1.8-9.2-4.3-12.8-7.7c-3.7-3.4-6.5-7.5-8.7-12.4
				c-2.1-4.8-3.2-10.4-3.2-16.5c0-6,1.1-11.4,3.2-16.2c2.1-4.8,5-9,8.6-12.4c3.6-3.4,7.8-6,12.6-7.9c4.8-1.9,9.9-2.8,15.4-2.8
				c5.5,0,10.7,1,15.8,3.1c5.1,2.1,9.1,4.9,12.1,8.5L620,412.2z"/>
		</g>
		<g>
			<path class="st8" d="M431.3,516.4v78.7c0,4.4-0.4,8.6-1.1,12.6c-0.7,4-2.1,7.4-4.1,10.4c-2,2.9-4.7,5.3-8.2,7
				c-3.5,1.8-8,2.6-13.5,2.6c-1.5,0-3.1-0.1-4.6-0.3c-1.5-0.2-2.8-0.4-3.7-0.6l1.5-15.8c0.8,0.2,1.7,0.4,2.6,0.5
				c0.9,0.1,1.8,0.2,2.5,0.2c2.2,0,3.9-0.4,5.3-1.2c1.3-0.8,2.4-2,3.1-3.4c0.7-1.4,1.2-3.1,1.4-5c0.2-1.9,0.3-3.9,0.3-6.1v-79.5
				H431.3z M410.2,491.2c0-3,1.1-5.6,3.3-7.8c2.2-2.2,5-3.3,8.4-3.3c3.4,0,6.3,1.1,8.6,3.2c2.3,2.1,3.5,4.8,3.5,8
				c0,3.2-1.2,5.9-3.5,8c-2.3,2.1-5.2,3.2-8.6,3.2c-3.4,0-6.2-1.1-8.4-3.3C411.3,496.8,410.2,494.2,410.2,491.2z"/>
			<path class="st8" d="M491.3,581.2h-0.5c-1.9,3.3-4.8,6-9,8.1c-4.1,2.1-8.8,3.2-14.1,3.2c-3,0-6.1-0.4-9.4-1.2
				c-3.2-0.8-6.2-2.1-9-3.9c-2.7-1.8-5-4.2-6.8-7.1c-1.8-2.9-2.7-6.6-2.7-10.9c0-5.6,1.6-10,4.7-13.3c3.1-3.3,7.2-5.8,12.1-7.6
				c4.9-1.8,10.4-2.9,16.5-3.5c6-0.6,11.9-0.9,17.7-0.9v-1.9c0-4.6-1.7-8.1-5-10.3c-3.4-2.2-7.3-3.3-12-3.3c-3.9,0-7.7,0.8-11.3,2.5
				c-3.6,1.6-6.6,3.7-9,6l-9.6-11.3c4.2-3.9,9.1-6.9,14.6-8.8c5.5-2,11.1-2.9,16.8-2.9c6.6,0,12,0.9,16.3,2.8
				c4.3,1.9,7.7,4.3,10.1,7.3c2.5,3,4.2,6.3,5.2,10.1c1,3.7,1.5,7.4,1.5,11.1v45.1h-17.3V581.2z M491,556.7h-4.2
				c-3,0-6.1,0.1-9.4,0.4c-3.3,0.3-6.3,0.8-9.1,1.7c-2.8,0.9-5.1,2.1-7,3.7s-2.8,3.8-2.8,6.6c0,1.8,0.4,3.2,1.2,4.4
				c0.8,1.2,1.8,2.1,3,2.9c1.2,0.7,2.6,1.2,4.2,1.5c1.5,0.3,3.1,0.5,4.6,0.5c6.4,0,11.2-1.7,14.5-5.1c3.3-3.4,4.9-8,4.9-13.9V556.7z
				"/>
			<path class="st8" d="M521.6,516.4h17.8v12.4h0.3c2.1-4.3,4.9-7.8,8.7-10.5c3.7-2.7,8-4,13-4c0.7,0,1.5,0,2.3,0.1
				c0.8,0.1,1.5,0.2,2.2,0.4v17c-1.2-0.3-2.3-0.5-3.2-0.6c-0.9-0.1-1.7-0.2-2.6-0.2c-4.2,0-7.6,0.8-10.2,2.3c-2.6,1.5-4.6,3.4-6,5.6
				c-1.4,2.2-2.4,4.4-2.9,6.6c-0.5,2.3-0.8,4.1-0.8,5.4v39.7h-18.6V516.4z"/>
		</g>
	</g>
</g>
</svg>
