<svg xmlns="http://www.w3.org/2000/svg" xmlns:xlink="http://www.w3.org/1999/xlink" viewBox="0 0 2197.83 1212.9"><defs><style>.cls-1{fill:none;}.cls-2{fill:#292929;}.cls-3{clip-path:url(#clip-path);}.cls-4,.cls-9{fill:#34c0c8;}.cls-4,.cls-5,.cls-6{opacity:0.8;}.cls-5,.cls-8{fill:#fff;}.cls-6{fill:#fdd405;}.cls-7{fill:#fed402;}</style><clipPath id="clip-path" transform="translate(-1.28 23.9)"><rect class="cls-1" x="3.27" y="1.5" width="1917.43" height="1076.47"/></clipPath></defs><title>tgj_banner</title><g id="BG"><rect class="cls-2" y="25.4" width="1917.43" height="1076.47"/></g><g id="Layer_8" data-name="Layer 8"><g class="cls-3"><circle class="cls-4" cx="836.93" cy="758.91" r="67.72"/><path class="cls-4" d="M1496.4,881.55a234.55,234.55,0,1,1-469.09,0c0-129.54,105-234.55,234.55-234.55S1496.4,752,1496.4,881.55Z" transform="translate(-1.28 23.9)"/><circle class="cls-5" cx="1613.63" cy="218.98" r="90.09"/><path class="cls-6" d="M1607,94.1a118,118,0,1,1-44.86-92.6A118,118,0,0,1,1607,94.1Z" transform="translate(-1.28 23.9)"/><circle class="cls-6" cx="428.31" cy="505.39" r="311.81"/><path class="cls-4" d="M1.28,24.58a235.48,235.48,0,0,1,49.29-5.19c129.54,0,234.55,105,234.55,234.55s-105,234.55-234.55,234.55A235.6,235.6,0,0,1,3.3,483.72" transform="translate(-1.28 23.9)"/><circle class="cls-4" cx="1459" cy="124.1" r="20.5" transform="matrix(0.99, -0.15, 0.15, 0.99, -3.55, 241.63)"/><circle class="cls-6" cx="1575.72" cy="910.9" r="118"/><circle class="cls-5" cx="1260.57" cy="625.75" r="103.15"/><path class="cls-5" d="M503.67,940.23a248.77,248.77,0,1,1-497.53,0c0-137.39,111.38-248.77,248.77-248.77S503.67,802.85,503.67,940.23Z" transform="translate(-1.28 23.9)"/><path class="cls-6" d="M621.44,64A87.88,87.88,0,1,1,595.35,1.5,87.88,87.88,0,0,1,621.44,64Z" transform="translate(-1.28 23.9)"/><path class="cls-4" d="M2199.12,543c0,173.46-119.34,319-280.4,359.12a370.87,370.87,0,0,1-89.66,10.94C1624.68,913.09,1459,747.41,1459,543S1624.68,173,1829.06,173a370.87,370.87,0,0,1,89.66,10.93C2079.77,224,2199.12,369.57,2199.12,543Z" transform="translate(-1.28 23.9)"/><circle class="cls-6" cx="778.54" cy="873.71" r="102.82"/><circle class="cls-4" cx="502.39" cy="1045.84" r="46.69"/><path class="cls-7" d="M853.1,295.27v-8.81h7.71V273.71h10.83v12.75h11v8.81h-11v20.46a10,10,0,0,0,1.05,4.86q1.05,1.93,4.72,1.93a13.55,13.55,0,0,0,2.38-.23,9.52,9.52,0,0,0,2.29-.69l.37,8.62a18.16,18.16,0,0,1-3.49.87,24.59,24.59,0,0,1-3.85.32,17.58,17.58,0,0,1-7.16-1.24,10.83,10.83,0,0,1-4.36-3.39,12.54,12.54,0,0,1-2.2-5,28.73,28.73,0,0,1-.6-6V295.27Z" transform="translate(-1.28 23.9)"/><path class="cls-7" d="M910,285.18a16.57,16.57,0,0,1,7.38,1.51,14.57,14.57,0,0,1,5,4,16.17,16.17,0,0,1,2.89,5.69,24,24,0,0,1,.92,6.6v27.52h-11V306.27a30.18,30.18,0,0,0-.28-4,11.52,11.52,0,0,0-1.15-3.76,7.53,7.53,0,0,0-2.48-2.8,7.42,7.42,0,0,0-4.27-1.1,9.77,9.77,0,0,0-4.59,1,9.5,9.5,0,0,0-3.21,2.71,12.07,12.07,0,0,0-1.93,3.81,14.75,14.75,0,0,0-.64,4.31v24h-11V261.14h11v31.46h.18a10.55,10.55,0,0,1,1.88-2.71,14.89,14.89,0,0,1,2.89-2.39,15.16,15.16,0,0,1,3.76-1.7A15.72,15.72,0,0,1,910,285.18Z" transform="translate(-1.28 23.9)"/><path class="cls-7" d="M975.93,309v1.47a11.92,11.92,0,0,1-.09,1.47H942.36a10.88,10.88,0,0,0,1.24,4.36,11.05,11.05,0,0,0,2.8,3.39,13.89,13.89,0,0,0,3.94,2.25,13,13,0,0,0,4.59.83,14.69,14.69,0,0,0,7-1.51,13.07,13.07,0,0,0,4.68-4.17l7.34,5.87q-6.52,8.81-18.9,8.81a26.89,26.89,0,0,1-9.45-1.61,22.24,22.24,0,0,1-7.48-4.54,20.46,20.46,0,0,1-5-7.2,24.82,24.82,0,0,1-1.79-9.68,25.27,25.27,0,0,1,1.79-9.68,21.55,21.55,0,0,1,12.29-12.2,24.72,24.72,0,0,1,9.22-1.7,23.25,23.25,0,0,1,8.49,1.51,18.43,18.43,0,0,1,6.74,4.5,20.87,20.87,0,0,1,4.45,7.43A30.69,30.69,0,0,1,975.93,309Zm-11-5a13.58,13.58,0,0,0-.6-4,9,9,0,0,0-5.14-5.73,11.4,11.4,0,0,0-4.63-.87,12.38,12.38,0,0,0-8.39,3,10.87,10.87,0,0,0-3.81,7.66Z" transform="translate(-1.28 23.9)"/><path class="cls-7" d="M858.37,344.46v40.09a36.94,36.94,0,0,1-1.47,10.78,20.88,20.88,0,0,1-4.54,8.17,20.51,20.51,0,0,1-7.75,5.18,30.38,30.38,0,0,1-11.1,1.83,37.18,37.18,0,0,1-5.64-.46,39.19,39.19,0,0,1-5.87-1.38,35.44,35.44,0,0,1-5.55-2.29,26.8,26.8,0,0,1-4.77-3.12l6.33-8.53a22.72,22.72,0,0,0,7.25,4.63,21.94,21.94,0,0,0,8.16,1.61,17,17,0,0,0,6.65-1.15,10.75,10.75,0,0,0,4.31-3.18,12.46,12.46,0,0,0,2.29-4.79,25.12,25.12,0,0,0,.69-6.08v-3.22h-.18a15.51,15.51,0,0,1-6.1,5,19.59,19.59,0,0,1-8.3,1.71,21.48,21.48,0,0,1-9-1.83,20.35,20.35,0,0,1-6.83-5,22.63,22.63,0,0,1-4.36-7.29,25.05,25.05,0,0,1-1.56-8.85,26.44,26.44,0,0,1,1.51-9,22,22,0,0,1,4.31-7.34,20.53,20.53,0,0,1,6.79-5,21.17,21.17,0,0,1,8.94-1.83,20,20,0,0,1,8.71,1.93,14.72,14.72,0,0,1,6.42,6h.18v-6.6Zm-23.48,7.71a12.5,12.5,0,0,0-5.37,1.1,11.58,11.58,0,0,0-3.94,3,13.31,13.31,0,0,0-2.48,4.43,16.89,16.89,0,0,0-.87,5.49,15.23,15.23,0,0,0,.87,5.12,14.64,14.64,0,0,0,2.48,4.44,12.11,12.11,0,0,0,3.94,3.15,11.47,11.47,0,0,0,5.27,1.19,12.5,12.5,0,0,0,9.59-4.21,13.73,13.73,0,0,0,2.61-4.43,15.24,15.24,0,0,0,.92-5.26,15.91,15.91,0,0,0-.92-5.4,13.66,13.66,0,0,0-2.61-4.48,12.19,12.19,0,0,0-4.08-3A12.82,12.82,0,0,0,834.88,352.17Z" transform="translate(-1.28 23.9)"/><path class="cls-7" d="M866.44,344.46H877v7.34h.18a16.06,16.06,0,0,1,5.14-6.24,12.82,12.82,0,0,1,7.71-2.38q.64,0,1.38,0a5.17,5.17,0,0,1,1.28.23v10.09a15.42,15.42,0,0,0-1.88-.37,13.1,13.1,0,0,0-1.51-.09,11.67,11.67,0,0,0-6.05,1.38,11,11,0,0,0-3.58,3.3,11.82,11.82,0,0,0-1.74,3.95,15.3,15.3,0,0,0-.46,3.21v23.58h-11Z" transform="translate(-1.28 23.9)"/><path class="cls-7" d="M920.84,382.9h-.28a12.28,12.28,0,0,1-5.32,4.82,18.07,18.07,0,0,1-8.35,1.88,24,24,0,0,1-5.55-.69,16.49,16.49,0,0,1-5.32-2.29,13.31,13.31,0,0,1-4-4.22,12.14,12.14,0,0,1-1.61-6.47,11,11,0,0,1,2.8-7.89,18.11,18.11,0,0,1,7.2-4.5,40.65,40.65,0,0,1,9.77-2.06q5.37-.5,10.5-.5v-1.1a6.81,6.81,0,0,0-3-6.1,12.59,12.59,0,0,0-7.11-2,15.94,15.94,0,0,0-6.7,1.47,18,18,0,0,0-5.32,3.58l-5.69-6.7a24.85,24.85,0,0,1,8.67-5.23,29.56,29.56,0,0,1,10-1.74,24.47,24.47,0,0,1,9.68,1.65,15.79,15.79,0,0,1,6,4.31,15.45,15.45,0,0,1,3.07,6,25.84,25.84,0,0,1,.87,6.61v26.79H920.84Zm-.18-14.49h-2.48q-2.66,0-5.6.23a24.38,24.38,0,0,0-5.41,1,11.56,11.56,0,0,0-4.13,2.2,4.88,4.88,0,0,0-1.65,3.9,4.68,4.68,0,0,0,.69,2.61,5.27,5.27,0,0,0,1.79,1.7,8,8,0,0,0,2.48.92,14,14,0,0,0,2.75.28q5.69,0,8.62-3a11.36,11.36,0,0,0,2.94-8.26Z" transform="translate(-1.28 23.9)"/><path class="cls-7" d="M949.37,344.46v6.15h.28A16,16,0,0,1,951.8,348a14.27,14.27,0,0,1,3.26-2.38,21,21,0,0,1,4.36-1.74,20,20,0,0,1,5.46-.69,20.53,20.53,0,0,1,15.41,6.7,22.19,22.19,0,0,1,4.4,7.34,26,26,0,0,1,1.56,9.08,27.1,27.1,0,0,1-1.51,9.13,22.39,22.39,0,0,1-4.31,7.43,20.74,20.74,0,0,1-6.79,5,21,21,0,0,1-9,1.88,19.08,19.08,0,0,1-8.58-1.93,14.59,14.59,0,0,1-6-5.23h-.18v27.89h-11v-66Zm25.69,21.83a17.17,17.17,0,0,0-.78-5.09,14.24,14.24,0,0,0-2.34-4.54A11.78,11.78,0,0,0,968,353.4a12,12,0,0,0-5.6-1.24,11.24,11.24,0,0,0-5.41,1.28,13.88,13.88,0,0,0-4.08,3.3,14.09,14.09,0,0,0-2.57,4.59,15.88,15.88,0,0,0-.87,5.14,15.47,15.47,0,0,0,.87,5.09,14.17,14.17,0,0,0,2.57,4.54,13.23,13.23,0,0,0,4.08,3.26,12.64,12.64,0,0,0,11,0,12.25,12.25,0,0,0,3.94-3.3,14.14,14.14,0,0,0,2.34-4.59A17.61,17.61,0,0,0,975.05,366.29Z" transform="translate(-1.28 23.9)"/><path class="cls-7" d="M1016.24,343.18a16.56,16.56,0,0,1,7.38,1.51,14.56,14.56,0,0,1,5,4,16.16,16.16,0,0,1,2.89,5.69,24,24,0,0,1,.92,6.6v27.52h-11V364.27a30.18,30.18,0,0,0-.28-4,11.53,11.53,0,0,0-1.15-3.76,7.53,7.53,0,0,0-2.48-2.8,7.42,7.42,0,0,0-4.27-1.1,9.77,9.77,0,0,0-4.59,1,9.51,9.51,0,0,0-3.21,2.71,12.07,12.07,0,0,0-1.93,3.81,14.74,14.74,0,0,0-.64,4.31v24h-11V319.14h11v31.46h.18a10.56,10.56,0,0,1,1.88-2.71,14.92,14.92,0,0,1,2.89-2.38,15.18,15.18,0,0,1,3.76-1.7A15.73,15.73,0,0,1,1016.24,343.18Z" transform="translate(-1.28 23.9)"/><path class="cls-7" d="M1038.81,329.51a6.34,6.34,0,0,1,2-4.63,6.78,6.78,0,0,1,5-2,7.29,7.29,0,0,1,5.09,1.88,6.44,6.44,0,0,1,0,9.45,7.28,7.28,0,0,1-5.09,1.88,6.77,6.77,0,0,1-5-2A6.34,6.34,0,0,1,1038.81,329.51Zm1.56,15h11v44h-11Z" transform="translate(-1.28 23.9)"/><path class="cls-7" d="M1089.72,356.66a9.73,9.73,0,0,0-3.85-3.07,11.93,11.93,0,0,0-5.23-1.24,11,11,0,0,0-5.32,1.24,11.56,11.56,0,0,0-3.81,3.26,14,14,0,0,0-2.25,4.54,18.11,18.11,0,0,0-.73,5.09,17.16,17.16,0,0,0,.78,5.09,14.18,14.18,0,0,0,2.34,4.54,11.87,11.87,0,0,0,3.9,3.26,11.49,11.49,0,0,0,5.46,1.24,13.94,13.94,0,0,0,5.14-1,9.8,9.8,0,0,0,4.13-2.94l6.88,7a18.22,18.22,0,0,1-7,4.54,26,26,0,0,1-9.22,1.61,27.15,27.15,0,0,1-9.22-1.56,21.51,21.51,0,0,1-12.75-11.93,24.3,24.3,0,0,1-1.88-9.82,23.83,23.83,0,0,1,1.88-9.63,22,22,0,0,1,5.09-7.34,22.76,22.76,0,0,1,7.48-4.68A25.52,25.52,0,0,1,1090,345a17.79,17.79,0,0,1,7.2,5Z" transform="translate(-1.28 23.9)"/><path class="cls-7" d="M977.78,418.46v46.69a41.91,41.91,0,0,1-.64,7.48,15.73,15.73,0,0,1-2.43,6.15,12.76,12.76,0,0,1-4.86,4.17,17.79,17.79,0,0,1-8,1.56,20.85,20.85,0,0,1-2.75-.18q-1.38-.18-2.2-.37l.92-9.36a12.11,12.11,0,0,0,1.56.27,13.6,13.6,0,0,0,1.47.09,5.9,5.9,0,0,0,3.12-.73,4.9,4.9,0,0,0,1.83-2,8.77,8.77,0,0,0,.83-3,33.84,33.84,0,0,0,.18-3.62V418.46Zm-12.57-15a6.34,6.34,0,0,1,2-4.63,6.77,6.77,0,0,1,5-2,7.29,7.29,0,0,1,5.09,1.88,6.44,6.44,0,0,1,0,9.45,7.28,7.28,0,0,1-5.09,1.88,6.77,6.77,0,0,1-5-2A6.33,6.33,0,0,1,965.21,403.51Z" transform="translate(-1.28 23.9)"/><path class="cls-7" d="M1013.37,456.9h-.28a12.28,12.28,0,0,1-5.32,4.82,18.07,18.07,0,0,1-8.35,1.88,24,24,0,0,1-5.55-.69,16.49,16.49,0,0,1-5.32-2.29,13.31,13.31,0,0,1-4-4.22,12.14,12.14,0,0,1-1.61-6.47,11,11,0,0,1,2.8-7.89,18.11,18.11,0,0,1,7.2-4.5,40.65,40.65,0,0,1,9.77-2.06q5.37-.5,10.5-.5v-1.1a6.81,6.81,0,0,0-3-6.1,12.59,12.59,0,0,0-7.11-2,15.94,15.94,0,0,0-6.7,1.47,18,18,0,0,0-5.32,3.58l-5.69-6.7a24.85,24.85,0,0,1,8.67-5.23,29.56,29.56,0,0,1,10-1.74,24.47,24.47,0,0,1,9.68,1.65,15.79,15.79,0,0,1,6,4.31,15.45,15.45,0,0,1,3.07,6,25.84,25.84,0,0,1,.87,6.61v26.79h-10.27Zm-.18-14.49h-2.48q-2.66,0-5.6.23a24.38,24.38,0,0,0-5.41,1,11.56,11.56,0,0,0-4.13,2.2,4.88,4.88,0,0,0-1.65,3.9,4.68,4.68,0,0,0,.69,2.61,5.27,5.27,0,0,0,1.79,1.7,8,8,0,0,0,2.48.92,14,14,0,0,0,2.75.28q5.69,0,8.62-3a11.36,11.36,0,0,0,2.94-8.26Z" transform="translate(-1.28 23.9)"/><path class="cls-7" d="M1031.35,418.46h10.55v7.34h.18a16.06,16.06,0,0,1,5.14-6.24,12.82,12.82,0,0,1,7.71-2.38q.64,0,1.38,0a5.17,5.17,0,0,1,1.28.23v10.09a15.42,15.42,0,0,0-1.88-.37,13.1,13.1,0,0,0-1.51-.09,11.67,11.67,0,0,0-6.05,1.38,11,11,0,0,0-3.58,3.3,11.82,11.82,0,0,0-1.74,3.95,15.3,15.3,0,0,0-.46,3.21v23.58h-11Z" transform="translate(-1.28 23.9)"/><path class="cls-8" d="M1193.06,124.1H731.69v26.06h435l-.11,574.66c0,112.83-91.79,204.62-204.62,204.62S757.37,837.64,757.37,724.82H730.91C730.91,852.23,834.57,955.9,962,955.9s231.08-103.66,231.08-231.08l-.11-600.71Z" transform="translate(-1.28 23.9)"/><path class="cls-9" d="M808,724.82c0,86.3,70.21,156.51,156.51,156.51s156.51-70.21,156.51-156.51h0V181h23.67V724.82h0c0,99.37-80.85,180.22-180.22,180.22S784.33,824.19,784.33,724.82Z" transform="translate(-1.28 23.9)"/><path class="cls-9" d="M950.79,560.6c-107,0-194-87-194-194s87-194,194-194,194,87,194,194S1057.75,560.6,950.79,560.6Zm0-364.26c-93.89,0-170.28,76.39-170.28,170.28S856.9,536.9,950.79,536.9s170.28-76.39,170.28-170.28S1044.68,196.34,950.79,196.34Z" transform="translate(-1.28 23.9)"/></g></g></svg>