<svg id="Layer_1" data-name="Layer 1" xmlns="http://www.w3.org/2000/svg" viewBox="0 0 1654.1 435.6"><defs><style>.cls-1,.cls-3{fill:#292929;}.cls-2,.cls-4{fill:#34c0c8;}.cls-3{font-size:209.01px;font-family:AvenirNext-Regular, Avenir Next;}.cls-4{letter-spacing:-0.01em;}.cls-5{fill:#231f20;letter-spacing:0em;}</style></defs><title>tgjlogoheader2</title><path class="cls-1" d="M270.69,8.21H29.07V21.86H256.89l-.06,300.94a107.16,107.16,0,0,1-214.31,0H28.66a121,121,0,0,0,242,0L270.63,8.21Z" transform="translate(-28.66 -8.21)"/><path class="cls-2" d="M69.05,322.8a82,82,0,0,0,163.93,0h0V38h12.4V322.8h0a94.38,94.38,0,0,1-188.76,0Z" transform="translate(-28.66 -8.21)"/><path class="cls-2" d="M143.81,236.8A101.59,101.59,0,1,1,245.4,135.22,101.7,101.7,0,0,1,143.81,236.8Zm0-190.76A89.17,89.17,0,1,0,233,135.22,89.27,89.27,0,0,0,143.81,46Z" transform="translate(-28.66 -8.21)"/><text class="cls-3" transform="translate(274.85 285.44)">the <tspan class="cls-2" x="359.91" y="0">g</tspan><tspan class="cls-4" x="492" y="0">r</tspan><tspan class="cls-2" x="564.74" y="0">aphic</tspan><tspan class="cls-5" x="1087.68" y="0"> </tspan><tspan x="1139.93" y="0">jar</tspan></text></svg>