<svg id="Layer_1" data-name="Layer 1" xmlns="http://www.w3.org/2000/svg" viewBox="0 0 792.21 514.63"><defs><style>.cls-1,.cls-3{fill:#231f20;}.cls-2{fill:#34c0c8;}.cls-3{font-size:133px;font-family:AvenirNext-DemiBold, Avenir Next;font-weight:700;}.cls-4{letter-spacing:-0.01em;}</style></defs><title>tgjlogoheader</title><path class="cls-1" d="M291.59,7.21h-267V22.29H276.34l-.06,332.6a118.43,118.43,0,0,1-236.86,0H24.1c0,73.75,60,133.74,133.74,133.74s133.74-60,133.74-133.74L291.53,7.21Z" transform="translate(-24.1 3.37)"/><path class="cls-2" d="M68.75,354.89a90.59,90.59,0,0,0,181.17,0h0V40.16h13.7V354.89h0a104.31,104.31,0,0,1-208.61,0Z" transform="translate(-24.1 3.37)"/><path class="cls-2" d="M151.37,259.85A112.27,112.27,0,1,1,263.64,147.58,112.4,112.4,0,0,1,151.37,259.85Zm0-210.83a98.55,98.55,0,1,0,98.55,98.55A98.66,98.66,0,0,0,151.37,49Z" transform="translate(-24.1 3.37)"/><text class="cls-3" transform="translate(292.67 113.58)">the <tspan class="cls-2"><tspan x="0" y="170">g</tspan><tspan class="cls-4" x="84.05" y="170">r</tspan><tspan x="130.74" y="170">aphic</tspan><tspan class="cls-1" x="466.29" y="170"> </tspan></tspan><tspan x="0" y="340">jar</tspan></text></svg>