<svg id="Layer_1" data-name="Layer 1" xmlns="http://www.w3.org/2000/svg" xmlns:xlink="http://www.w3.org/1999/xlink" viewBox="0 0 1431.93 1119.98"><defs><style>.cls-1{fill:url(#linear-gradient);}.cls-2{fill:#fff;}</style><linearGradient id="linear-gradient" x1="34.8" y1="820.04" x2="1466.74" y2="820.04" gradientUnits="userSpaceOnUse"><stop offset="0" stop-color="#92278f"/><stop offset="1" stop-color="#ec008c"/></linearGradient></defs><title>trial</title><path class="cls-1" d="M750.77,930.38S912.91,746.6,1017.93,703.94c0,0-206.75,216.59-206.75,397.09S896.5,1376.69,1037.62,1380s216.59-144.4,210-210-19.69-151-114.86-233c0,0,367.55-131.27,331.45-439.75s-531-380.68-713.47,180.49C568.33,116.52,73.4,188.71,37.3,497.19S368.75,936.94,368.75,936.94c-95.17,82-108.3,167.37-114.86,233s68.92,213.31,210,210S690.36,1281.52,690.36,1101,483.61,703.94,483.61,703.94c105,42.66,267.16,226.44,267.16,226.44" transform="translate(-34.8 -260.04)"/><circle class="cls-2" cx="715.97" cy="524.61" r="53.21"/></svg>