<svg id="Layer_3" data-name="Layer 3" xmlns="http://www.w3.org/2000/svg" viewBox="0 0 1794.46 1465.17"><defs><style>.cls-1{fill:#fff;stroke:#231f20;stroke-miterlimit:10;stroke-width:3px;}</style></defs><title>web_design</title><path class="cls-1" d="M1822.81,1250.54H95.08a31.47,31.47,0,0,1-31.38-31.38V53.4A31.47,31.47,0,0,1,95.08,22H1822.81a31.47,31.47,0,0,1,31.38,31.38V1219.16A31.47,31.47,0,0,1,1822.81,1250.54Z" transform="translate(-61.23 -20.52)"/><polygon class="cls-1" points="1103.68 1230.02 688.94 1230.02 659.73 1433.61 1132.89 1433.61 1103.68 1230.02"/><path class="cls-1" d="M1853.21,1092.82v126.34a31.47,31.47,0,0,1-31.38,31.38H94.11a31.47,31.47,0,0,1-31.38-31.38V1092.82Z" transform="translate(-61.23 -20.52)"/><rect class="cls-1" x="589.64" y="1434.46" width="619.19" height="29.21"/></svg>