<svg id="Layer_4" data-name="Layer 4" xmlns="http://www.w3.org/2000/svg" viewBox="0 0 650.06 1000"><defs><style>.cls-1{fill:#231f20;}</style></defs><title>process_num3</title><path class="cls-1" d="M494.12,389.44a.45.45,0,0,1-.27-.78C510.82,374.55,799.63,133,825,8a3.83,3.83,0,0,0-4.38-4.61C774.41,11.79,439.18,68.83,218.28.46a10.13,10.13,0,0,0-13.08,10v320c18.52-1.74,32.5-18.09,31.88-37.27l-1.81-56a1.9,1.9,0,0,1,2.29-2c22.86,5.67,206.29,48,363.46-9.89,0,0-41.68,79.89-169.52,172.32a7.19,7.19,0,0,1-2.82,1.3c-10.45,2.24-75.68,17.55-103.2,55.8-8.68,12.06-3.27,29.73,11.08,32.31,16.84,3,46.22-4,95.51-46.41,14.78-12.72,35.14-16.76,53.17-9.79,20.17,7.8,45.12,23.76,62.69,56.47,10.21,19,14.82,40.68,16,62.39,2.83,52.78,8.81,177.85,4.12,214.17,0,0-21,225.94-203.9,179.51,0,0-60,6.2-66-117.61,0,0,95.35,14.32,113.37-60.47,20.21-83.92-62-160.2-139.28-126.87q-5.56,2.4-11.29,5.5c-72.62,39.45-104.91,132-74.7,210.74a198.94,198.94,0,0,0,55.94,79.74c18.38,16,39.89,27.61,62.39,36.34C370.77,996.37,524.68,1036.41,670,931c0,0,128.94-71.18,131.93-275.46C801.92,655.49,843.87,433,494.12,389.44ZM249.51,34.06S394.35,70.27,488.72,54.91C488.72,54.91,316.44,126.24,249.51,34.06ZM335.1,797.81s50.47-38.41-4.39-139.36C328.82,655,437.15,732,335.1,797.81Zm350,75.71s85.59-240.31-53.77-403.82C631.38,469.7,866.21,601.38,685.15,873.52Z" transform="translate(-174.97 0)"/></svg>